<svg xmlns="http://www.w3.org/2000/svg" viewBox="0 0 956.953 465.987" width="956.953" height="465.987">
  <defs>
    <style>
      .cls-1{fill:#ccc}.cls-2{fill:#fff;stroke:#999;stroke-miterlimit:10;stroke-width:8.057px}.cls-3{fill:#999}.cls-4{fill:#f2f2f2}.cls-7{fill:#b3b3b3}
    </style>
  </defs>
  <g id="Layer_2" data-name="Layer 2">
    <g id="Layer_1-2" data-name="Layer 1">
      <ellipse class="cls-1" cx="478.476" cy="438.924" rx="213.187" ry="27.063"/>
      <path class="cls-2" d="M903.01 295.051l24.586-7.617a11.992 11.992 0 0115 7.906l9.428 30.431a18.235 18.235 0 01.778 7.615q-1.116 8.988-10.9 12l-21.255 6.585a.968.968 0 00-.638 1.21l20.507 66.191a16.164 16.164 0 01-10.658 20.228L894.2 450.647a16.164 16.164 0 01-20.224-10.656L853.472 373.8a.968.968 0 00-1.21-.638l-143.484 44.453a21.716 21.716 0 01-14.312-.428 19.7 19.7 0 01-10.706-8.836L670.469 384.4a28.736 28.736 0 01-1.972-23.5l89.136-252.645a20.856 20.856 0 0113.5-12.983l43.007-13.331a20.855 20.855 0 0126.094 13.75L901.8 294.414a.967.967 0 001.21.637zm-96.472-72.743q-2.672-8.623-5.148-18.8l-.049-.2a5.855 5.855 0 00-11.252-.488l-43.374 130.962a5.854 5.854 0 007.29 7.432l75.953-23.531a5.853 5.853 0 003.859-7.324z"/>
      <path class="cls-3" d="M427.242 58.988a193.44 193.44 0 00-129.313 165.738l11.624-4.029a9.966 9.966 0 013.79-.532 10.091 10.091 0 013.356.75 185 185 0 0127.175-63.924l.028-.059a184.251 184.251 0 01270.374-39.138 10.508 10.508 0 012.172-2.667 9.971 9.971 0 013.307-1.926l11.635-4.032a193.361 193.361 0 00-204.148-50.181zm189.725 47.88a17.669 17.669 0 00-2.5 1.2 1.219 1.219 0 01-1.388-.081c-83.382-66.814-217.348-45.18-274.911 45.1a191.491 191.491 0 00-26.586 59.413 1.2 1.2 0 01-1.022.888 18.112 18.112 0 00-2.7.6 1.212 1.212 0 01-1.559-1.3c17.778-143.442 208.5-209.266 311.06-107.8a1.208 1.208 0 01-.394 1.98z"/>
      <path class="cls-3" d="M702.6 112.618a15.872 15.872 0 00-8.061-.291c-.375-.59-.761-1.212-1.181-1.859a242.685 242.685 0 00-122.83-96.684A241.487 241.487 0 00275.57 131.639a240.817 240.817 0 00-25.5 132.666c.066.648.124 1.31.2 1.99a9.149 9.149 0 00-.9.47 15.85 15.85 0 00-7.286 19.081L281.02 398.2a15.926 15.926 0 0020.24 9.823l23.967-8.306a15.667 15.667 0 001.925-.813l4 11.548c3.319 9.578 13.479 14.8 22.655 11.619l22.792-7.9a16.823 16.823 0 004.5-2.378 191.107 191.107 0 00284.559-62.658 181.764 181.764 0 004.824-9.791c.476-1.018.937-2.044 1.377-3.061l5.964-2.067a27.815 27.815 0 0015.6-13.89l9.314-19.174 6.858-2.376c9.175-3.18 13.926-13.567 10.607-23.146l-2.116-6.106 3.471-7.152 20.626-7.147a15.862 15.862 0 0010.5-17.524 14.56 14.56 0 00-.673-2.716l-38.941-112.353a15.955 15.955 0 00-10.469-10.014zM436.479 85.644a183.376 183.376 0 00-92.579 71.288l-.028.059a185 185 0 00-27.172 63.924 10.117 10.117 0 00-3.356-.751 9.968 9.968 0 00-3.79.534l-11.624 4.028a193.388 193.388 0 01333.461-115.557l-11.636 4.031a9.971 9.971 0 00-3.307 1.926 10.526 10.526 0 00-2.172 2.667 184.083 184.083 0 00-177.797-32.149z"/>
      <path class="cls-4" d="M659.555 345.906A184.207 184.207 0 01380.2 402.3q-2.135-1.73-4.194-3.521a184.4 184.4 0 01-60.443-172.2q.513-2.847 1.135-5.66a185 185 0 0127.175-63.924 184.4 184.4 0 00-20.82 70.195c-.074.843-.144 1.7-.2 2.545a184.216 184.216 0 00336.7 116.175z"/>
      <path d="M618.67 121.538a168.17 168.17 0 00-4.394-3.744A184.251 184.251 0 00343.9 156.932l-.028.059a184.4 184.4 0 00-20.82 70.195c-.074.843-.144 1.7-.2 2.545a184.216 184.216 0 00336.7 116.175c1.643-3.105 3.2-6.267 4.66-9.454l-23.085 8a7.971 7.971 0 01-5.261 7.053l-22.911 7.94c-11.124 3.855-23.92-3.659-28.438-16.7-2.765-7.978-1.825-16.241 1.877-22.339a27.62 27.62 0 00.58 16.659c4.519 13.04 17.318 20.564 28.442 16.709l22.911-7.939a7.667 7.667 0 002.158-1.163l.642-.222a1.739 1.739 0 00.021-.361 8.644 8.644 0 00-.478-3.175l-.351-1.012 26.383-9.143a183.817 183.817 0 009.923-31.174c.394-1.782.774-3.572 1.113-5.372a182.693 182.693 0 002.271-53.746c-.02-.163-.03-.331-.061-.491a184.648 184.648 0 00-61.281-118.44z" fill="#fff"/>
      <path d="M429.778 66.308c-106.8 37.01-163.373 153.586-126.363 260.386l386.749-134.023C653.154 85.871 536.578 29.3 429.778 66.308z" fill="none"/>
      <path class="cls-7" d="M667.777 145.5l10.746 31.009-5.323 1.841a192.68 192.68 0 00-36.815-63.67q-2.454-2.807-4.994-5.511a193.375 193.375 0 00-312.511 43.56 193.378 193.378 0 01322.35-46.97q2.41 2.785 4.723 5.678a191.64 191.64 0 0121.824 34.063z"/>
      <path class="cls-1" d="M712.188 164.839l-33.665 11.666-10.746-31.005a191.64 191.64 0 00-21.824-34.059q-2.319-2.89-4.723-5.678a193.378 193.378 0 00-322.35 46.97 193.9 193.9 0 00-20.951 72q-.328 3.7-.514 7.419a191.345 191.345 0 003.715 48.222q1.8 8.832 4.485 17.623 1.058 3.474 2.265 6.957l-38.988 13.51a235.1 235.1 0 01-11.138-47.551c-.3-2.419-.578-4.835-.807-7.254A234.725 234.725 0 01413.731 20c104.206-36.112 216.542 5.52 273.821 94.223 1.351 2.1 2.68 4.216 3.963 6.368a233.865 233.865 0 0118.158 37.377 195.264 195.264 0 012.515 6.871z"/>
      <path class="cls-7" d="M656.4 112.643L713.672 277.9c2.07 5.975-.79 12.428-6.341 14.351l-22.791 7.9a10 10 0 01-4.585.455 10.869 10.869 0 01-3.327-1.018 11.824 11.824 0 01-5.938-6.793l-57.268-165.257a11.809 11.809 0 01.854-9.744 10.526 10.526 0 012.172-2.667 9.971 9.971 0 013.307-1.926l22.792-7.9a10.35 10.35 0 011.169-.32c5.233-1.116 10.768 2.119 12.684 7.662z"/>
      <path class="cls-1" d="M745.848 238.756a9.022 9.022 0 01-5.933 9.946l-23.964 8.3a9.026 9.026 0 01-11.45-5.548L678.526 176.5l6.912-2.4 23.58 68.045a9.023 9.023 0 0011.44 5.551l23.974-8.308a8.261 8.261 0 001.416-.632z"/>
      <path class="cls-1" d="M706.54 124.9l38.936 112.36a7.991 7.991 0 01.372 1.5 8.261 8.261 0 01-1.416.638l-23.974 8.302a9.023 9.023 0 01-11.44-5.551l-23.58-68.045-6.912 2.4-12.962-37.4a9.018 9.018 0 014.146-10.8 8.265 8.265 0 011.416-.639l23.964-8.3a9.029 9.029 0 0111.45 5.548zM328.9 383.244a9.021 9.021 0 01-5.933 9.946L299 401.494a9.025 9.025 0 01-11.45-5.548l-38.936-112.36a9.018 9.018 0 014.145-10.8 8.066 8.066 0 00.371 1.5l38.937 112.36a9.023 9.023 0 0011.44 5.551l23.974-8.308a8.185 8.185 0 001.419-.645z"/>
      <path class="cls-1" d="M289.591 269.387l38.937 112.36a8.066 8.066 0 01.371 1.5 8.185 8.185 0 01-1.416.638l-23.974 8.308a9.023 9.023 0 01-11.44-5.551l-38.937-112.36a8.066 8.066 0 01-.371-1.5 8.265 8.265 0 011.416-.639l23.964-8.3a9.026 9.026 0 0111.45 5.544z"/>
      <path class="cls-7" d="M323.4 228.042L380.667 393.3a11.821 11.821 0 01-.466 9 10.534 10.534 0 01-1.98 2.869 10 10 0 01-3.883 2.479l-22.792 7.9c-5.551 1.924-11.79-1.376-13.861-7.351l-57.268-165.26c-2.067-5.965.793-12.418 6.344-14.341l22.792-7.9a9.968 9.968 0 013.79-.534 10.117 10.117 0 013.356.751 11.75 11.75 0 016.355 6.271 7.882 7.882 0 01.346.858z"/>
      <path class="cls-1" d="M474.575 269.206c-10.656-5.148-50.492-24.693-61.132-29.669a2.9 2.9 0 00-3.85 1.366l-29.64 61.076a2.912 2.912 0 001.356 3.894l10.164 4.932a2.92 2.92 0 003.9-1.352l22.16-45.664a2.921 2.921 0 013.9-1.352L467.1 284.6a2.92 2.92 0 003.9-1.353l4.92-10.139a2.912 2.912 0 00-1.345-3.902zM613.916 220.919c-10.656-5.148-50.492-24.693-61.132-29.669a2.9 2.9 0 00-3.85 1.366l-29.64 61.076a2.912 2.912 0 001.356 3.894l10.164 4.932a2.919 2.919 0 003.9-1.352l22.16-45.663a2.919 2.919 0 013.9-1.352l45.664 22.16a2.921 2.921 0 003.9-1.352l4.92-10.14a2.912 2.912 0 00-1.342-3.9z"/>
      <path class="cls-1" d="M493.8 180.117c10.656 5.148 50.492 24.694 61.133 29.669a2.9 2.9 0 003.849-1.365l29.64-61.077a2.91 2.91 0 00-1.356-3.893l-10.166-4.933a2.92 2.92 0 00-3.9 1.352l-22.16 45.664a2.92 2.92 0 01-3.9 1.352l-45.663-22.16a2.92 2.92 0 00-3.9 1.352l-4.921 10.139a2.912 2.912 0 001.344 3.9zM354.46 228.4c10.656 5.148 50.492 24.694 61.133 29.669a2.9 2.9 0 003.849-1.366l29.64-61.076a2.911 2.911 0 00-1.356-3.893l-10.164-4.933a2.92 2.92 0 00-3.9 1.352L411.5 233.821a2.92 2.92 0 01-3.9 1.352l-45.663-22.16a2.92 2.92 0 00-3.9 1.352l-4.925 10.135a2.912 2.912 0 001.348 3.9zM429 363.287a2.928 2.928 0 011.97-3.641c28.189-8.393 58.662-5.368 83.607 8.3l.462.254a2.928 2.928 0 011.1 4.045l-6.01 10.212a2.971 2.971 0 01-3.991 1.1l-.084-.046c-20.819-11.408-46.339-13.907-70.016-6.856a2.927 2.927 0 01-3.641-1.97zM732.594 223.8l-1.309 2.7-44.076 90.823a20.893 20.893 0 01-11.644 10.375l-39.172 13.575a20.147 20.147 0 01-14.42-37.6c.4-.176.812-.33 1.226-.474l26.732-9.263a11.805 11.805 0 006.748-6l23.272-47.955 16.388-33.767a20.147 20.147 0 1136.255 17.586z"/>
      <path class="cls-7" d="M632.218 303.749l10.916 31.5a8.521 8.521 0 01.453 3.525l-3.265 1.131.351 1.012a8.644 8.644 0 01.478 3.175 7.163 7.163 0 01-.663.583 7.667 7.667 0 01-2.158 1.163l-22.911 7.939c-11.124 3.855-23.923-3.669-28.442-16.709a27.62 27.62 0 01-.58-16.659v-.011c1.9-6.558 6.343-11.879 12.591-14.044l22.911-7.939a7.959 7.959 0 018.5 2.285 8.5 8.5 0 011.819 3.049z"/>
      <path class="cls-4" d="M666.705 330.761q-1.183 2.862-2.49 5.691l-23.085 8a1.739 1.739 0 00.021-.361 8.1 8.1 0 002.436-5.318z"/>
      <path class="cls-7" d="M643.587 338.773a8.1 8.1 0 01-2.436 5.318 8.644 8.644 0 00-.478-3.175l-.351-1.012z"/>
      <path class="cls-4" d="M641.13 344.452a7.971 7.971 0 01-5.261 7.053l-22.911 7.94c-11.124 3.855-23.92-3.659-28.438-16.7-2.765-7.978-1.825-16.241 1.877-22.339a27.62 27.62 0 00.58 16.659c4.519 13.04 17.318 20.564 28.442 16.709l22.911-7.939a7.667 7.667 0 002.158-1.163z"/>
      <path class="cls-2" d="M250.191 304.219l24.948 6.333a11.992 11.992 0 018.672 14.573L275.972 356a18.229 18.229 0 01-3.31 6.9q-5.643 7.084-15.567 4.551l-21.567-5.475a.967.967 0 00-1.176.7L217.3 429.845a16.163 16.163 0 01-19.644 11.69l-36.181-9.184a16.165 16.165 0 01-11.69-19.645l17.05-67.164a.965.965 0 00-.7-1.175l-145.591-36.96a21.724 21.724 0 01-11.986-7.833 19.706 19.706 0 01-4.521-13.125L5.2 259.08A28.737 28.737 0 0115.784 238L223.665 69a20.851 20.851 0 0118.288-4.032L285.6 76.052a20.856 20.856 0 0115.08 25.348l-51.188 201.644a.965.965 0 00.699 1.175zm-44.331-112.4q2.221-8.75 5.417-18.72l.064-.2a5.855 5.855 0 00-9.341-6.286l-105.345 89.08A5.854 5.854 0 0099 265.837l77.064 19.563a5.855 5.855 0 007.115-4.234z"/>
    </g>
  </g>
</svg>
