<svg xmlns="http://www.w3.org/2000/svg" width="366.698" height="323.649" viewBox="0 0 366.698 323.649">
  <g id="Layer_2" data-name="Layer 2">
    <path fill="#ccc" d="M231.144 203.237l23.407-3.895.188 33.676-23.407 3.895-.188-33.676zM328.128 236.237l7.076-1.177q-3.382 3.081-7.051 6.011zM134.887 302.024l-.188-33.676 23.407-3.883.188 33.677-23.407 3.882z"/>
    <path fill="#fff" d="M231.144 203.237l.188 33.676 23.407-3.9-.188-33.676zm-36.394 6.036l.176 33.677 23.406-3.883-.175-33.676zm51.886-53.551c-.063-11.559-10.069-19.287-22.342-17.245s-22.194 13.062-22.13 24.623 10.069 19.287 22.355 17.246 22.181-13.065 22.117-24.624zm-21.628 114.492l-21.228 3.519.125 24.183a703.578 703.578 0 01-29.218 7.64l-.551-101.067v-.062l-.188-33.075h.188l53.89-61.317 46.826 37.547.225 40.088.464 84.548c-9.568 4.345-19.4 8.328-29.206 11.947l-.087-17.483zM39.945 285.718l-.564-102.857 45.186 36.431h.563l.564 102.858h-.551l-45.198-36.432z"/>
    <path fill="#f15a29" d="M246.248 266.682l.087 17.483a575.893 575.893 0 01-21.2 7.326l-.125-21.277z"/>
    <path fill="#ccc" d="M98.218 259.005l-.188-33.676 23.406-3.883.188 33.677-23.406 3.882zM315.128 238.391l.063 12.148a255.909 255.909 0 01-23.344 13.738l-.126-21.991z"/>
    <path fill="#db4528" d="M158.482 166.906l65.499-74.942.05-.063 62.531 50.145 3.719 2.981-3.506.576-11.923 1.979-46.826-37.547-3.908-3.13-50.207 57.433-15.429 2.568z"/>
    <path fill="#ccc" d="M327.852 187.182l23.407-3.895.188 33.688-23.407 3.883-.188-33.676z"/>
    <path d="M91.1 134.432s-10.1-6.275-23.4-15.304c0 0 28.341-39.788 15.655-98.3a45.045 45.045 0 013.118 5.235C97.692 48.181 91.1 134.432 91.1 134.432z" fill="#eabd00"/>
    <path fill="#fff" d="M173.911 164.338l.037 7.014.188 33.075-45.123-36.457h-.075l-.138-24.997 29.682 23.933 15.429-2.568z"/>
    <path fill="#f2f2f2" d="M203.93 302.437l21.24-3.531 21.228-3.52 29.243-4.859-.1-18.309c5.535-2.53 11-5.173 16.306-7.941l.062 11.685 23.407-3.882-.125-21.541q6.819-4.564 12.962-9.468l.163 28.842 23.406-3.882-.187-33.676-16.335 2.705c15.517-14.09 26.387-30.308 29.43-48.855h.076l.488 89.457-236.005 39.249-.013-.063c1.866-.288 20.026-3.206 45.511-9.292l.013 1.728z"/>
    <path fill="#f2f2f2" d="M174.7 307.284l-.013-1.728a706.747 706.747 0 0029.218-7.64l.025 4.521z"/>
    <path fill="#b3b3b3" d="M291.847 264.277a255.909 255.909 0 0023.344-13.738l.125 21.541-23.407 3.882z"/>
    <path fill="#fff" d="M364.634 172.804l-39.149 6.513-.025-.138-38.685-33.576 3.506-.576-3.719-2.981.213-.263 32.674-5.423 45.185 36.444z"/>
    <path fill="#ccc" d="M173.911 164.338l50.207-57.433 3.908 3.13-53.89 61.317h-.188l-.037-7.014zM134.624 252.969l-.188-33.689 23.407-3.883.188 33.677-23.407 3.895zM291.458 193.218l23.407-3.882.176 33.676-23.407 3.882-.176-33.676z"/>
    <path fill="#db4528" d="M203.93 302.437l-.025-4.521c6.888-1.954 14-4.095 21.228-6.425l.037 7.415z"/>
    <path fill="#f15a29" d="M223.981 91.964l-65.499 74.942-29.682-23.933-15.516-12.511 65.561-75.005 45.136 36.507z"/>
    <path fill="#fff" d="M224.519 180.344c-12.286 2.041-22.292-5.674-22.355-17.246s9.844-22.58 22.13-24.621 22.279 5.686 22.342 17.245-9.844 22.578-22.117 24.622zM158.106 264.465l-23.406 3.883.188 33.676 23.407-3.882zm-.263-49.068l-23.407 3.883.188 33.689 23.407-3.895zM121.712 270.5l-23.407 3.882.188 33.689 23.407-3.895zm-.276-49.056l-23.406 3.885.188 33.676 23.406-3.882zm52.7-16.957l.551 101.067c-25.485 6.086-43.645 9-45.511 9.292l.013.063-43.495 7.241-.564-102.858z"/>
    <path fill="#b3b3b3" d="M335.2 235.06l16.331-2.705.187 33.676-23.406 3.882-.163-28.842q3.667-2.931 7.051-6.011z"/>
    <path fill="#ccc" d="M194.926 242.95l-.176-33.677 23.407-3.882.175 33.676-23.406 3.883z"/>
    <path fill="#f15a29" d="M203.78 273.733l21.228-3.519.125 21.277a625.842 625.842 0 01-21.228 6.425z"/>
    <path d="M67.7 119.128c-22.555-15.3-54.252-38.523-61.316-52.437a44.9 44.9 0 0176.968-45.862C96.038 79.34 67.7 119.128 67.7 119.128zm-37.32-60.79a19.724 19.724 0 108.666-26.513 19.711 19.711 0 00-8.669 26.513z" fill="#ffd200"/>
    <path fill="#ccc" d="M98.493 308.073l-.188-33.689 23.407-3.882.188 33.676-23.407 3.895z"/>
    <path fill="#db4528" d="M246.335 284.165l.063 11.221-21.228 3.52-.037-7.415a574.688 574.688 0 0021.202-7.326z"/>
    <path fill="#fff" d="M291.458 193.218l.176 33.676 23.407-3.882-.176-33.676zm59.989 23.757l-.188-33.688-23.407 3.895.188 33.676zm-59.6 47.3a350.94 350.94 0 01-16.306 7.941l-.464-84.548h.176l50.232-8.353 39.149-6.513.076 13.4h-.076c-3.043 18.547-13.913 34.765-29.43 48.855l-7.076 1.177.025 4.834q-6.125 4.922-12.962 9.468l-.063-12.148-23.407 3.9z"/>
    <path fill="#f2f2f2" d="M274.852 147.582l11.923-1.979 38.685 33.576.025.138-50.232 8.353h-.176l-.225-40.088z"/>
    <path fill="#fff" d="M39.381 182.861l89.557-14.891h.075l45.123 36.457v.062L85.13 219.292h-.563l-45.186-36.431z"/>
    <path fill="#f2f2f2" d="M275.541 272.218l.1 18.309-29.241 4.859-.063-11.221c9.805-3.619 19.636-7.602 29.204-11.947z"/>
    <path d="M85.694 323.649a1.5 1.5 0 01-1.5-1.491L83.63 219.3a1.5 1.5 0 011.254-1.488l89.4-14.867a1.5 1.5 0 01.477 2.962l-.389.062-87.735 14.593.547 99.819 41.759-6.95 234.748-39.039-.547-99.819-87.644 14.576a1.5 1.5 0 01-.492-2.959l89.382-14.865a1.5 1.5 0 011.746 1.471l.564 102.857a1.5 1.5 0 01-1.254 1.488L129.435 316.39l-43.495 7.239a1.458 1.458 0 01-.246.02zM158.482 168.406a1.5 1.5 0 01-1.13-2.488l65.5-74.941a1.572 1.572 0 012.118-.246l66.251 53.125a1.5 1.5 0 01-.7 2.651l-15.421 2.555a1.5 1.5 0 01-.49-2.96l12.11-2.01-62.5-50.119-61.849 70.765 11.3-1.879a1.5 1.5 0 11.493 2.959l-15.429 2.567a1.468 1.468 0 01-.253.021z"/>
    <path d="M174.7 308.784a1.5 1.5 0 01-1.5-1.489l-.013-1.728-.551-101.067 1.5-.071h1.5l.551 101.09 27.5-4.56a1.5 1.5 0 01.49 2.96l-29.23 4.847a1.547 1.547 0 01-.247.018zM246.4 296.886a1.5 1.5 0 01-.244-2.979l27.982-4.65-.557-101.579a1.5 1.5 0 011.493-1.508h.007a1.5 1.5 0 011.5 1.492l.564 102.857a1.5 1.5 0 01-1.254 1.488l-29.243 4.859a1.49 1.49 0 01-.248.02z"/>
    <path d="M174.136 205.927a1.5 1.5 0 01-1.5-1.492l-.226-40.088a1.5 1.5 0 01.372-1l50.208-57.434a1.5 1.5 0 012.066-.183l50.734 40.677a1.5 1.5 0 01.562 1.162l.225 40.089a1.5 1.5 0 01-1.491 1.508h-.009a1.5 1.5 0 01-1.5-1.492l-.221-39.373-49.056-39.327-48.887 55.926.223 39.52a1.5 1.5 0 01-1.491 1.509z"/>
    <path d="M220.676 182.165a20.747 20.747 0 01-13.462-4.658 18.609 18.609 0 01-6.55-14.4c-.064-12.244 10.424-23.957 23.383-26.107a21.557 21.557 0 0117.534 4.314 18.607 18.607 0 016.555 14.4c.066 12.242-10.418 23.955-23.371 26.109a24.933 24.933 0 01-4.089.342zm7.457-42.509a21.864 21.864 0 00-3.594.3c-11.569 1.922-20.933 12.3-20.875 23.133a15.654 15.654 0 005.484 12.124 18.606 18.606 0 0015.125 3.65c11.562-1.923 20.922-12.3 20.863-23.134a15.655 15.655 0 00-5.488-12.124 17.743 17.743 0 00-11.515-3.949z"/>
    <path d="M224.407 160.916a1.5 1.5 0 01-1.5-1.491l-.076-13.5a1.5 1.5 0 011.492-1.508 1.463 1.463 0 011.508 1.492l.076 13.5a1.5 1.5 0 01-1.492 1.508z"/>
    <path d="M213.884 162.657a1.5 1.5 0 01-.243-2.98l10.52-1.74a1.5 1.5 0 01.491 2.959l-10.521 1.741a1.487 1.487 0 01-.247.02zM231.332 238.413a1.5 1.5 0 01-1.5-1.492l-.188-33.676a1.5 1.5 0 011.254-1.488l23.407-3.894a1.5 1.5 0 011.746 1.471l.188 33.676a1.5 1.5 0 01-1.254 1.488l-23.407 3.9a1.57 1.57 0 01-.246.015zm1.319-33.906l.172 30.638 20.409-3.4-.171-30.637zM194.926 244.45a1.5 1.5 0 01-1.5-1.492l-.176-33.677a1.5 1.5 0 011.255-1.488l23.407-3.882a1.5 1.5 0 011.746 1.472l.174 33.677a1.5 1.5 0 01-1.255 1.487l-23.406 3.883a1.547 1.547 0 01-.245.02zm1.331-33.906l.16 30.638 20.408-3.385-.159-30.638zM328.04 222.358a1.5 1.5 0 01-1.5-1.492l-.188-33.676a1.5 1.5 0 011.254-1.488l23.407-3.9a1.5 1.5 0 011.746 1.471l.188 33.689a1.5 1.5 0 01-1.255 1.489l-23.407 3.882a1.547 1.547 0 01-.245.025zm1.319-33.906l.172 30.638 20.409-3.385-.171-30.65zM291.634 228.394a1.5 1.5 0 01-1.5-1.492l-.176-33.676a1.5 1.5 0 011.255-1.488l23.407-3.883a1.514 1.514 0 011.212.334 1.5 1.5 0 01.534 1.139L316.54 223a1.5 1.5 0 01-1.255 1.488l-23.406 3.882a1.547 1.547 0 01-.245.024zm1.331-33.906l.16 30.638 20.409-3.385-.16-30.638zM328.316 271.413a1.5 1.5 0 01-1.5-1.492l-.163-28.841-.025-4.834a1.5 1.5 0 011.254-1.488l23.407-3.882a1.5 1.5 0 011.745 1.471l.188 33.676a1.5 1.5 0 01-1.255 1.489l-23.406 3.882a1.547 1.547 0 01-.245.019zm1.337-30.35l.153 27.082 20.409-3.385-.171-30.638-20.409 3.385zM291.909 277.462a1.5 1.5 0 01-1.5-1.492l-.188-33.676a1.5 1.5 0 011.254-1.488l23.407-3.894a1.5 1.5 0 011.746 1.471l.188 33.688a1.5 1.5 0 01-1.255 1.489l-23.406 3.882a1.55 1.55 0 01-.246.02zm1.319-33.906l.119 20.713.053 9.924 20.408-3.385-.171-30.649zM134.624 254.469a1.5 1.5 0 01-1.5-1.492l-.188-33.689a1.5 1.5 0 011.255-1.488l23.407-3.883a1.5 1.5 0 011.745 1.472l.188 33.676a1.5 1.5 0 01-1.254 1.488l-23.407 3.9a1.459 1.459 0 01-.246.016zm1.319-33.919l.172 30.65 20.409-3.4-.171-30.639zM98.217 260.505a1.5 1.5 0 01-1.5-1.492l-.187-33.676a1.5 1.5 0 011.254-1.488l23.408-3.883a1.5 1.5 0 011.745 1.472l.187 33.676a1.5 1.5 0 01-1.255 1.489l-23.407 3.882a1.547 1.547 0 01-.245.02zm1.319-33.905l.171 30.638 20.41-3.385-.17-30.638zM134.887 303.524a1.5 1.5 0 01-1.5-1.492l-.187-33.676a1.5 1.5 0 011.254-1.488l23.407-3.883a1.5 1.5 0 011.745 1.472l.188 33.676a1.5 1.5 0 01-1.255 1.489l-23.407 3.878a1.547 1.547 0 01-.245.024zm1.319-33.906l.171 30.638 20.41-3.385-.171-30.638zM98.493 309.573a1.5 1.5 0 01-1.5-1.492l-.188-33.688a1.5 1.5 0 011.255-1.493l23.407-3.882a1.5 1.5 0 011.745 1.472l.188 33.676a1.5 1.5 0 01-1.254 1.488l-23.406 3.898a1.471 1.471 0 01-.247.021zm1.319-33.918l.172 30.649 20.409-3.4-.171-30.638zM203.93 303.937a1.5 1.5 0 01-1.5-1.492l-.024-4.521-.126-24.183a1.5 1.5 0 011.254-1.488L246 265.2a1.5 1.5 0 011.746 1.472l.151 28.7a1.5 1.5 0 01-1.255 1.488l-42.467 7.05a1.459 1.459 0 01-.245.027zm1.476-6.029l.014 2.76 39.471-6.552-.135-25.665-39.47 6.549z"/>
    <path d="M225.17 300.406a1.5 1.5 0 01-1.5-1.493l-.163-28.69a1.5 1.5 0 011.493-1.509h.009a1.5 1.5 0 011.5 1.491l.163 28.693a1.5 1.5 0 01-1.492 1.508zM39.945 287.218a1.5 1.5 0 01-1.5-1.491l-.564-102.858a1.5 1.5 0 011.254-1.488l89.557-14.89a1.5 1.5 0 01.492 2.959l-88.3 14.681.557 101.579a1.5 1.5 0 01-1.493 1.508zM286.773 143.283a1.5 1.5 0 01-.243-2.98l32.67-5.423a1.5 1.5 0 01.491 2.96l-32.674 5.423a1.478 1.478 0 01-.244.02zM113.283 131.961a1.5 1.5 0 01-1.128-2.487l65.561-75a1.5 1.5 0 012.072-.179l58.937 47.678a1.5 1.5 0 11-1.887 2.332l-57.813-46.77-64.613 73.918a1.493 1.493 0 01-1.129.508z"/>
    <path d="M128.938 169.47a1.5 1.5 0 01-1.5-1.491l-.138-25 3-.033.138 25.014a1.5 1.5 0 01-1.492 1.508zM84.566 220.792a1.5 1.5 0 01-.941-.332L38.44 184.028a1.5 1.5 0 111.883-2.335l45.185 36.432a1.5 1.5 0 01-.942 2.667zM85.142 323.649a1.5 1.5 0 01-.941-.332L39 286.886a1.5 1.5 0 011.883-2.336l45.2 36.431a1.5 1.5 0 01-.942 2.668zM364.633 174.3a1.494 1.494 0 01-.94-.332l-45.186-36.444a1.5 1.5 0 111.883-2.335l45.185 36.444a1.5 1.5 0 01-.942 2.667z"/>
    <path d="M174.135 205.927a1.492 1.492 0 01-.941-.333l-45.123-36.457a1.5 1.5 0 111.884-2.334l45.123 36.457a1.5 1.5 0 01-.943 2.667zM158.481 168.406a1.5 1.5 0 01-.941-.333l-45.2-36.444a1.5 1.5 0 011.883-2.335l45.2 36.444a1.5 1.5 0 01-.942 2.668zM91.1 135.932a1.5 1.5 0 01-.791-.226c-.1-.063-10.285-6.394-23.458-15.337-24.291-16.482-54.733-39.056-61.812-53a46.4 46.4 0 0179.546-47.393 46.588 46.588 0 013.221 5.406c11.283 22.239 5.063 105.625 4.794 109.164a1.5 1.5 0 01-1.5 1.386zM46.333 3A43.382 43.382 0 007.719 66.012c5.3 10.434 26.9 28.857 60.82 51.875 9.6 6.518 17.6 11.639 21.244 13.943.96-14.275 5.2-85.676-4.651-105.087a43.487 43.487 0 00-3.013-5.058A43.457 43.457 0 0046.333 3z"/>
    <path d="M47.982 70.652a21.269 21.269 0 01-18.944-11.635 21.183 21.183 0 1118.944 11.635zm-.029-39.474a18.23 18.23 0 00-16.239 26.48 18.214 18.214 0 1016.239-26.48z"/>
  </g>
</svg>
