<svg xmlns="http://www.w3.org/2000/svg" width="338.537" height="304.857" viewBox="0 0 338.537 304.857">
  <g id="Layer_2" data-name="Layer 2">
    <path fill="#e6e6e6" d="M326.233 168.684a29.67 29.67 0 01-.892 1.979c-1.522 3.109-6.207.859-4.805-2.305 11.361-25.677 7.469-46.495 7.469-46.495 4.131 5.49 8.718 16.154 3.435 33.776a71.051 71.051 0 01-1.826 5.338 88 88 0 01-3.349 7.631c-.01.022-.021.055-.032.076z"/>
    <path fill="#e6e6e6" d="M331.44 155.639s23.8 17.459-26.721 84.163h-.011a24.277 24.277 0 00-3.794-7.12s37.418-43.756 28.7-71.7a71.919 71.919 0 001.826-5.343z"/>
    <path fill="#fff" d="M329.614 160.977c8.718 27.949-28.7 71.7-28.7 71.7a31.159 31.159 0 00-2.935-3.37c-15.73-15.937-51.419-23.656-67.03-14.437a29.142 29.142 0 00-8.262 6.892s-12.045-23.557 0-53.159a79.986 79.986 0 014.348-9c6.751-12.023 9.915-21.622 11.208-29.015 1.337-7.642.663-12.9-.152-16.013a33.023 33.023 0 01-.935-12.751c1.185-9.045 5.4-20.981 19.72-17.916a35.623 35.623 0 017.686 2.7s15.317 18.264-1.185 73.521c-.859 2.891 3.424 4.4 4.49 1.587.087-.239.163-.489.25-.75a82.351 82.351 0 005.729-6.1c10.773-12.512 31.623-42.483 15.839-72.694a18.459 18.459 0 01-.783-1.946c-1.739-5.1-4.294-18.383 16.741-18.143 0 0 14.111 6.4 18.611 46.419a123.523 123.523 0 01-.978 8.675c-1.315 8.772-3.446 16.273-5.816 20.263-3.294 6.664-2.272 8.262-1.033 8.534a2.1 2.1 0 002.077-.881c7.935-11.24 7.261-25.807 7.261-25.807a22.908 22.908 0 012.24 2.576s3.892 20.818-7.469 46.5c-1.4 3.164 3.283 5.414 4.805 2.305.305-.62.609-1.283.892-1.979.011-.021.022-.054.032-.076a88.728 88.728 0 003.349-7.635z"/>
    <path fill="#e6e6e6" d="M325.765 119.287s.674 14.567-7.261 25.807a2.1 2.1 0 01-2.077.881c-1.239-.272-2.261-1.87 1.033-8.534 2.37-3.99 4.5-11.491 5.816-20.263a15.861 15.861 0 012.489 2.109zM305.643 62.084c16.557.184 20.3 24.818 18.611 46.419-4.5-40.016-18.611-46.419-18.611-46.419z"/>
    <path fill="#8a76dd" d="M304.708 239.8c2.109 6.447.935 13.643-5.1 21.253-16.622 20.97-30.841 31.819-39.831 37.233a33.77 33.77 0 01-24.71 4.305 24.278 24.278 0 01-12.382-6.555s46.082 11.447 75.292-66.726a31.159 31.159 0 012.935 3.37 24.277 24.277 0 013.796 7.12z"/>
    <path d="M289.685 82.173c15.784 30.211-5.066 60.182-15.839 72.694 6.479-21.8 7.022-36.124 5.566-45.343a7.022 7.022 0 002.88-2.543c1.577-2.729-.739-5.371-5.207-5.979-2.141-5.077-4.653-6.751-4.653-6.751a19.463 19.463 0 00-3.054-4.2 5.936 5.936 0 003.554-3.186c1.609-2.783-.858-5.479-5.5-6.022-4.055-.468-8.436.859-10.556 3.055v.01c-14.317-3.065-18.535 8.871-19.72 17.916a33.023 33.023 0 00.935 12.751c.815 3.11 1.489 8.371.152 16.013-12.543 25.823-32.643 18.398-32.643 18.398V149a127.746 127.746 0 00-18.481-10.73c-1.478-.717-2.957-1.4-4.424-2.065a226.289 226.289 0 00-13.578-5.566c-8.7-3.229-14.893-4.946-14.893-4.946-52.116 17.839-21.775 42.255-21.775 42.255a36.723 36.723 0 01-35.287-.957c-13.937-7.9-6.414-29.177 3.772-47.484l.011-.011a237.9 237.9 0 0115.545-24.025s28.667-.869 39.636-15l3.7 1.729 7.762-8.675-6.664-3.12-.772.5a20.079 20.079 0 00.185-2.468c5.327-9.164 3.4-14.937-.783-18.567 0 0 17.068-11.458 37.625-3.87A37.23 37.23 0 01213.8 58.686a30.905 30.905 0 0010.437 8.849 30.294 30.294 0 007.555 2.718 36.166 36.166 0 0010.479.685c23.384-1.707 29.961-4.305 46.637 9.294a18.459 18.459 0 00.777 1.941zM232.84 121.1c1.881-3.261.859-6.468-2.283-8.686 1.066-3.848-2.706-7.294-9.218-8.044-7.295-.837-15.252 2.022-17.774 6.4a4.923 4.923 0 00-.6 3.924 10.821 10.821 0 00-2.272 2.685c-3.077 5.327 1.62 10.48 10.5 11.5s18.571-2.45 21.647-7.779zm-45.886-40.82l6.947-5.849-14.568-5.331-4.663 3.92zm2.935 24.535c1.892-3.272.848-6.468-2.272-8.686 1.066-3.848-2.718-7.294-9.229-8.044-7.284-.848-15.252 2.022-17.774 6.392a4.973 4.973 0 00-.6 3.924 10.688 10.688 0 00-2.272 2.7c-3.077 5.327 1.63 10.48 10.5 11.5s18.571-2.457 21.647-7.784zm-11.806-40.133l11.023-7.143-9.925-4.652-7.762 8.675z" fill="#f15a29"/>
    <path fill="#999" d="M277.085 101c4.468.608 6.784 3.25 5.207 5.979a7.022 7.022 0 01-2.88 2.543 35.9 35.9 0 00-2.327-8.522z"/>
    <path fill="#db4528" d="M279.412 109.524c1.456 9.219.913 23.547-5.566 45.343a82.351 82.351 0 01-5.729 6.1s9.414-28.2 8.262-50.278a13.411 13.411 0 003.033-1.165z"/>
    <path fill="gray" d="M279.412 109.524a13.411 13.411 0 01-3.033 1.164 50.227 50.227 0 00-1.414-9.828 14.717 14.717 0 011.827.1 2.692 2.692 0 01.293.044 35.9 35.9 0 012.327 8.52z"/>
    <path fill="#e6e6e6" d="M276.379 110.688c1.152 22.079-8.262 50.278-8.262 50.278-.087.261-.163.511-.25.75-1.066 2.816-5.349 1.3-4.49-1.587 16.5-55.257 1.185-73.521 1.185-73.521a16.078 16.078 0 014.816 3.447 19.463 19.463 0 013.054 4.2 28.911 28.911 0 012.533 6.609 50.227 50.227 0 011.414 9.824z"/>
    <path fill="#999" d="M267.432 80.847c4.642.543 7.109 3.239 5.5 6.022a5.936 5.936 0 01-3.554 3.186 16.078 16.078 0 00-4.816-3.447 35.623 35.623 0 00-7.686-2.7V83.9c2.124-2.194 6.501-3.521 10.556-3.053z"/>
    <path fill="#c285ff" d="M221.393 241.368v-.011c-2.62-5.262-4.207-12.589 1.294-19.59a29.142 29.142 0 018.262-6.892c15.611-9.219 51.3-1.5 67.03 14.437-29.21 78.173-75.292 66.726-75.292 66.726-16.187-16.524-1.294-54.67-1.294-54.67z"/>
    <path fill="gray" d="M230.557 112.416c3.142 2.218 4.164 5.425 2.283 8.686-3.076 5.327-12.762 8.816-21.644 7.784s-13.578-6.175-10.5-11.5a10.821 10.821 0 012.272-2.685c.794 2.74 4.185 4.935 9.229 5.522 7.284.838 15.252-2.022 17.774-6.4a5.464 5.464 0 00.586-1.407z"/>
    <path fill="#999" d="M230.557 112.416a5.464 5.464 0 01-.587 1.4c-2.522 4.381-10.49 7.241-17.774 6.4-5.044-.587-8.435-2.782-9.229-5.522a4.923 4.923 0 01.6-3.924c2.522-4.381 10.479-7.24 17.774-6.4 6.51.752 10.282 4.198 9.216 8.046z"/>
    <path fill="#db4528" d="M238.243 130.592c-1.293 7.393-4.457 16.992-11.208 29.015a79.986 79.986 0 00-4.348 9c-2.707-7.37-9.164-13.947-17.089-19.611v-.011s20.102 7.426 32.645-18.393z"/>
    <path fill="#999" d="M193.901 74.433l-6.947 5.849-12.284-7.262 4.663-3.925 14.568 5.338z"/>
    <path fill="gray" d="M187.617 96.131c3.12 2.218 4.164 5.414 2.272 8.686-3.076 5.327-12.762 8.806-21.644 7.784s-13.578-6.175-10.5-11.5a10.688 10.688 0 012.272-2.7c.793 2.751 4.185 4.947 9.229 5.523 7.295.848 15.252-2.022 17.774-6.392a5.955 5.955 0 00.597-1.401z"/>
    <path fill="#999" d="M189.106 57.539l-11.023 7.143-6.664-3.12 7.762-8.675 9.925 4.652zM178.388 88.087c6.511.75 10.295 4.2 9.229 8.044a5.955 5.955 0 01-.6 1.4c-2.522 4.37-10.479 7.24-17.774 6.392-5.044-.576-8.436-2.772-9.229-5.523a4.973 4.973 0 01.6-3.924c2.522-4.367 10.486-7.237 17.774-6.389z"/>
    <path fill="#e6e6e6" d="M182.693 136.2a179.44 179.44 0 014.424 2.065s-.228 14.5-22.481 21.177c-9 2.7-14.719 1.468-18.35-.968a15.047 15.047 0 01-6.121-9.718 19.191 19.191 0 01.218-4.055s21.437 16.939 42.31-8.501z"/>
    <path fill="#fff" d="M169.115 130.636a225.75 225.75 0 0113.578 5.566c-20.873 25.438-42.31 8.5-42.31 8.5.75-4.827 3.652-12.219 14.469-11.958 9.186.217 14.263-2.1 14.263-2.1z"/>
    <path fill="#db4528" d="M169.115 130.636v.011s-5.077 2.315-14.263 2.1c-10.817-.261-13.719 7.131-14.469 11.958a19.191 19.191 0 00-.218 4.055 15.047 15.047 0 006.121 9.718v.011a51.426 51.426 0 01-13.839 9.458s-30.341-24.416 21.775-42.255c0-.002 6.196 1.715 14.893 4.944z"/>
    <path fill="#999" d="M167.582 73.52l-7.762 8.68-3.7-1.729a19.457 19.457 0 004.022-9.566l.772-.5z"/>
    <path fill="#fff" d="M121.228 89.217s-1.881 2.349-4.74 6.251a237.9 237.9 0 00-15.545 24.025l-.011.011C63.949 157.27 94.986 179.7 94.986 179.7c-6.1 2.206-14.633 3.957-26.286 3.848a46.99 46.99 0 00-.783-8.077v-.011c-2.87-15.861-13.274-30.8-25.5-39.581a20.608 20.608 0 00-7.132-3.62l3.033-.848S48.3 91.272 80.6 69.128a158.171 158.171 0 0154.67-24.09 31.36 31.36 0 0118.318 1.348 20.53 20.53 0 015.957 3.479c4.186 3.63 6.11 9.4.783 18.567-.174.294-.359.6-.544.9a32.036 32.036 0 01-2.369 3.327 34.785 34.785 0 01-5.871 5.653c-8.889 6.818-20.695 9.71-30.316 10.905z"/>
    <path fill="gray" d="M157.418 72.661l2.728-1.761a19.457 19.457 0 01-4.022 9.566l-4.577-2.152a34.785 34.785 0 005.871-5.653z"/>
    <path fill="#db4528" d="M151.547 78.314l4.577 2.152c-10.969 14.133-39.636 15-39.636 15 2.859-3.9 4.74-6.251 4.74-6.251 9.621-1.193 21.427-4.085 30.319-10.901z"/>
    <path fill="#e6e6e6" d="M97.16 166.988a38.11 38.11 0 0011.251 4.284s-3.468 4.826-13.425 8.425c0 0-31.037-22.427 5.946-60.193-10.186 18.307-17.709 39.581-3.772 47.484z"/>
    <path fill="#8a76dd" d="M68.7 183.545a41.433 41.433 0 01-3.957 18.4C53.426 225.768 13.41 220.2 6.7 210.918a38.868 38.868 0 01-1.185-1.729c.956.207 55.518 11.589 62.4-33.721a46.99 46.99 0 01.785 8.077z"/>
    <path fill="#c285ff" d="M26.672 145.17c-.043-5.674 1.044-14.632 8.61-12.914a20.608 20.608 0 017.132 3.62c12.229 8.783 22.633 23.72 25.5 39.581v.011c-6.881 45.31-61.443 33.928-62.4 33.721h-.007c-6.142-9.381-7.316-20.372 11.012-56.344 5.153-10.121 10.153-7.675 10.153-7.675z"/>
    <path d="M155.348 162.473a17.383 17.383 0 01-9.9-2.751 16.48 16.48 0 01-6.772-10.772 20.42 20.42 0 01.222-4.475c.788-5.067 3.917-13.515 15.988-13.23 8.688.2 13.559-1.943 13.608-1.965a1.5 1.5 0 011.24 2.732c-.219.1-5.507 2.457-14.92 2.232-9.318-.232-12.173 5.689-12.951 10.69a18.033 18.033 0 00-.205 3.705 13.681 13.681 0 005.46 8.591c4.033 2.705 9.781 2.966 17.085.777 20.82-6.245 21.4-19.222 21.412-19.771a1.533 1.533 0 011.532-1.465 1.5 1.5 0 011.468 1.52c-.01.637-.51 15.679-23.551 22.589a34.134 34.134 0 01-9.716 1.593z"/>
    <path d="M222.687 170.109a1.5 1.5 0 01-1.409-.984c-2.338-6.368-7.908-12.73-16.552-18.908a125.914 125.914 0 00-18.262-10.6 180.673 180.673 0 00-4.389-2.048 223.897 223.897 0 00-13.486-5.528c-8.534-3.168-14.707-4.889-14.768-4.906a1.5 1.5 0 01.8-2.891c.063.017 6.359 1.772 15.015 4.985 4.805 1.8 9.405 3.683 13.672 5.6 1.651.746 3.111 1.427 4.463 2.083a128.825 128.825 0 0118.7 10.86c9.144 6.535 15.074 13.369 17.625 20.314a1.5 1.5 0 01-.891 1.926 1.517 1.517 0 01-.518.097zM100.941 120.994a1.482 1.482 0 01-.727-.19 1.5 1.5 0 01-.582-2.04 239.1 239.1 0 0115.646-24.182c2.846-3.884 4.761-6.279 4.78-6.3a1.5 1.5 0 112.341 1.876c-.018.023-1.9 2.373-4.7 6.2a236.012 236.012 0 00-15.445 23.867 1.5 1.5 0 01-1.313.769z"/>
    <path d="M115.419 173.478a36.667 36.667 0 01-7.307-.736 39.768 39.768 0 01-11.693-4.45c-12.108-6.866-11-23.989 3.2-49.518a1.5 1.5 0 012.621 1.459c-9.24 16.615-17.5 37.988-4.34 45.451a36.8 36.8 0 0010.81 4.118c7.544 1.532 15.314.449 23.1-3.214a50.485 50.485 0 0013.4-9.147 1.5 1.5 0 012.149 2.092 52.5 52.5 0 01-14.279 9.771 41.272 41.272 0 01-17.661 4.174zM38.316 132.908a1.467 1.467 0 01-.363-.045 1.5 1.5 0 01-1.094-1.817c.1-.407 10.493-40.946 42.9-63.155a159.48 159.48 0 0155.2-24.319 32.758 32.758 0 0119.192 1.421 21.935 21.935 0 016.386 3.742c3.935 3.413 7.322 9.735 1.093 20.451q-.276.465-.561.93a33.687 33.687 0 01-2.485 3.49 36.417 36.417 0 01-6.125 5.9c-7.584 5.812-18.029 9.581-31.044 11.2a99.084 99.084 0 01-17.578.671 1.5 1.5 0 01-1.388-1.6 1.523 1.523 0 011.6-1.388 98.141 98.141 0 0016.994-.657c12.3-1.528 22.532-5.2 29.59-10.6a33.514 33.514 0 005.621-5.412 31.019 31.019 0 002.257-3.168c.176-.289.357-.588.527-.877 4.226-7.268 4.072-12.725-.475-16.669a18.983 18.983 0 00-5.527-3.218 29.785 29.785 0 00-17.445-1.288 156.4 156.4 0 00-54.14 23.862c-31.444 21.551-41.581 61.008-41.679 61.4a1.5 1.5 0 01-1.456 1.146z"/>
    <path d="M69.729 185.05c-.347 0-.694 0-1.043-.005a1.527 1.527 0 01-1.519-1.507 1.473 1.473 0 011.468-1.493c10.02.1 18.69-1.171 25.84-3.759 9.312-3.365 12.69-7.851 12.722-7.9a1.5 1.5 0 012.432 1.756c-.152.213-3.856 5.248-14.134 8.961-7.232 2.622-15.895 3.947-25.766 3.947zM222.687 223.267a1.5 1.5 0 01-1.336-.817c-.5-.987-12.218-24.513-.054-54.407a81.658 81.658 0 014.43-9.17c5.827-10.377 9.541-19.978 11.039-28.54 1.292-7.384.644-12.436-.126-15.373a34.437 34.437 0 01-.971-13.33c1.064-8.126 3.935-14.051 8.3-17.134 3.52-2.485 7.965-3.175 13.221-2.05a37.326 37.326 0 018.011 2.805 17.645 17.645 0 015.258 3.764 21.144 21.144 0 013.288 4.514 30.423 30.423 0 012.67 6.957 51.731 51.731 0 011.46 10.121c.844 16.177-3.8 35.271-6.509 44.81q.637-.714 1.341-1.528c9.871-11.465 31.156-41.335 15.647-71.021a19.628 19.628 0 01-.872-2.151c-1.1-3.235-2.44-9.359.993-14.1 2.967-4.1 8.744-6.129 17.183-6.033a15.569 15.569 0 0111.7 5.291c9.746 10.655 9.111 33.442 8.384 42.745a124.156 124.156 0 01-.99 8.779c-1.361 9.089-3.552 16.673-6.009 20.809a1.5 1.5 0 01-2.58-1.532c2.233-3.759 4.335-11.131 5.622-19.719.425-2.859.75-5.742.966-8.568 1.449-18.563-1.395-33.7-7.607-40.489a12.671 12.671 0 00-9.524-4.316c-7.447-.082-12.357 1.529-14.721 4.792-2.639 3.647-1.5 8.687-.584 11.368a17.8 17.8 0 00.709 1.77c7.041 13.474 7.755 28.34 2.106 44.149-4.6 12.857-12.408 23.511-18.155 30.184a83.093 83.093 0 01-5.846 6.22 1.5 1.5 0 01-2.443-1.575c.094-.28 9.312-28.192 8.188-49.725a48.915 48.915 0 00-1.368-9.531 27.5 27.5 0 00-2.4-6.267A18.136 18.136 0 00268.3 91.1a14.645 14.645 0 00-4.372-3.129 34.36 34.36 0 00-7.362-2.588c-4.4-.941-8.056-.415-10.865 1.568-4.628 3.267-6.391 10-7.055 15.075a31.441 31.441 0 00.9 12.175c.847 3.228 1.565 8.736.18 16.654-1.557 8.9-5.385 18.817-11.378 29.49a78.836 78.836 0 00-4.267 8.832c-11.626 28.572-.171 51.682-.053 51.912a1.5 1.5 0 01-1.336 2.182zM325.928 170.793a1.5 1.5 0 01-1.356-2.141c.073-.152.149-.3.224-.45l.094-.187a1.5 1.5 0 012.685 1.338l-.1.207c-.063.123-.127.249-.186.374a1.5 1.5 0 01-1.361.859z"/>
    <path d="M326.265 170.109a1.482 1.482 0 01-.663-.156 1.5 1.5 0 01-.681-2.009 87.3 87.3 0 003.291-7.5 69.462 69.462 0 001.792-5.234c5-16.663 1.019-26.84-3.2-32.443a21.454 21.454 0 00-2.093-2.41 15 15 0 00-2.241-1.91 1.5 1.5 0 011.6-2.537 17.287 17.287 0 012.756 2.322 24.349 24.349 0 012.374 2.732c4.632 6.155 9.029 17.244 3.673 35.108a72.628 72.628 0 01-1.865 5.45 89.194 89.194 0 01-3.4 7.752 1.5 1.5 0 01-1.343.835z"/>
    <path d="M304.718 241.3a1.5 1.5 0 01-1.194-2.406c29.232-38.6 33.375-60.366 31.7-71.83-1.078-7.4-4.638-10.192-4.674-10.217a1.5 1.5 0 011.775-2.419c.187.137 4.592 3.459 5.867 12.2 1.755 12.03-2.421 34.647-32.281 74.074a1.5 1.5 0 01-1.193.598zM226.6 250.313a1.493 1.493 0 01-1.06-.439 32.812 32.812 0 01-5.488-7.835 1.5 1.5 0 112.683-1.342 30.376 30.376 0 004.927 7.057 1.5 1.5 0 01-1.062 2.559z"/>
    <path d="M242.008 304.857a33.289 33.289 0 01-7.267-.8 25.889 25.889 0 01-13.127-6.97c-7.057-7.2-9.456-18.913-7.128-34.8a110.027 110.027 0 015.279-20.854c-3.54-7.522-2.943-14.631 1.742-20.595a30.835 30.835 0 018.68-7.257c16.054-9.48 52.735-1.662 68.86 14.675a32.58 32.58 0 013.068 3.526 25.8 25.8 0 014.021 7.557c2.442 7.466.642 15.087-5.351 22.646-16.742 21.122-31.12 32.1-40.233 37.586a35.987 35.987 0 01-18.544 5.286zm7.035-92.5c-6.807 0-12.909 1.2-17.331 3.811a27.881 27.881 0 00-7.846 6.527c-4.1 5.217-4.478 11.271-1.13 17.995a1.488 1.488 0 01.158.668v.012a1.519 1.519 0 01-.1.545c-.145.373-14.351 37.437.967 53.075a22.934 22.934 0 0011.641 6.141A32.093 32.093 0 00259.005 297c8.9-5.36 22.966-16.109 39.429-36.88 5.329-6.721 6.961-13.4 4.848-19.854a22.811 22.811 0 00-3.566-6.685 29.87 29.87 0 00-2.8-3.212c-10.864-11.007-31.423-18.014-47.873-18.014zM288.9 81.727a1.493 1.493 0 01-.947-.337c-14.212-11.589-20.643-11.045-37.846-9.584-2.368.2-4.93.418-7.733.623a37.823 37.823 0 01-10.914-.717 32.022 32.022 0 01-18.86-12.126A35.761 35.761 0 00196.652 47.4c-19.555-7.217-36.1 3.6-36.269 3.71a1.5 1.5 0 01-1.671-2.492c.723-.485 17.949-11.794 38.98-4.032a38.741 38.741 0 0117.3 13.189 29.036 29.036 0 0017.115 11.006 34.831 34.831 0 0010.052.655c2.79-.2 5.341-.42 7.7-.621 17.57-1.492 24.842-2.108 40 10.248a1.5 1.5 0 01-.95 2.663zM171.456 114.283a29.46 29.46 0 01-3.383-.192c-5.879-.677-10.252-3.056-12-6.528a7.4 7.4 0 01.371-7.214 12.18 12.18 0 012.583-3.075A1.5 1.5 0 11161 99.533a9.165 9.165 0 00-1.957 2.312 4.387 4.387 0 00-.292 4.37c1.247 2.477 4.949 4.353 9.663 4.9 8.182.942 17.424-2.283 20.173-7.044 1.927-3.333-.327-5.636-1.842-6.713a1.5 1.5 0 011.738-2.445c3.875 2.754 4.911 6.839 2.7 10.659-2.993 5.185-11.253 8.711-19.727 8.711z"/>
    <path d="M171.893 105.577a24.412 24.412 0 01-2.821-.161c-5.48-.626-9.5-3.154-10.5-6.6v-.007a6.485 6.485 0 01.742-5.082c2.843-4.926 11.3-8.056 19.248-7.133 4.427.51 7.939 2.244 9.632 4.756a6.1 6.1 0 01.869 5.179 7.523 7.523 0 01-.747 1.755c-2.504 4.343-9.38 7.293-16.423 7.293zm-10.435-7.586c.644 2.221 3.767 3.966 7.957 4.445 6.632.77 14.093-1.819 16.306-5.652a4.525 4.525 0 00.452-1.057 3.143 3.143 0 00-.467-2.7c-1.184-1.759-3.984-3.049-7.49-3.453-6.627-.774-14.09 1.816-16.3 5.652a3.508 3.508 0 00-.458 2.765zM214.431 130.571a29.406 29.406 0 01-3.407-.2c-5.879-.676-10.253-3.054-12-6.523a7.406 7.406 0 01.373-7.218 12.286 12.286 0 012.583-3.064 1.5 1.5 0 111.974 2.259 9.3 9.3 0 00-1.961 2.307 4.387 4.387 0 00-.289 4.367c1.265 2.513 4.877 4.342 9.664 4.892 8.177.949 17.418-2.274 20.173-7.043 1.919-3.327-.309-5.618-1.827-6.7a1.539 1.539 0 01-.2-.157 1.5 1.5 0 011.846-2.354l.066.045c3.886 2.744 4.927 6.829 2.717 10.662-3.003 5.202-11.251 8.726-19.712 8.727z"/>
    <path d="M214.82 121.87a24.664 24.664 0 01-2.795-.158c-5.565-.648-9.489-3.113-10.5-6.594a6.419 6.419 0 01.741-5.1c2.831-4.915 11.276-8.058 19.243-7.14 4.426.51 7.933 2.242 9.625 4.752a6.113 6.113 0 01.868 5.183 6.96 6.96 0 01-.735 1.756c-2.499 4.345-9.388 7.301-16.447 7.301zm3.978-16.141c-5.949 0-11.988 2.416-13.934 5.794a3.45 3.45 0 00-.457 2.756c.643 2.215 3.768 3.961 7.963 4.45 6.625.761 14.1-1.831 16.3-5.662a4.072 4.072 0 00.434-1.027 3.172 3.172 0 00-.458-2.733c-1.183-1.756-3.98-3.045-7.48-3.448a20.72 20.72 0 00-2.366-.13zM269.378 91.555a1.5 1.5 0 01-.508-2.912 4.471 4.471 0 002.762-2.52 1.6 1.6 0 00.133-1.6c-.427-.851-1.835-1.873-4.508-2.186-3.486-.4-7.48.721-9.3 2.607a1.5 1.5 0 11-2.158-2.084c2.488-2.576 7.348-4.015 11.807-3.5 3.327.391 5.82 1.783 6.842 3.82a4.562 4.562 0 01-.214 4.444 7.434 7.434 0 01-4.346 3.846 1.507 1.507 0 01-.51.085zM276.379 112.187a1.5 1.5 0 01-.3-2.973 11.791 11.791 0 002.612-1.008 5.583 5.583 0 002.3-1.974 1.607 1.607 0 00.142-1.594c-.4-.814-1.726-1.806-4.251-2.15-.041-.006-.08-.013-.12-.022s-.086-.011-.129-.016a13.25 13.25 0 00-1.669-.09 1.5 1.5 0 010-3 15.957 15.957 0 012.014.11c.118.013.238.029.359.052 3.159.442 5.523 1.824 6.49 3.8a4.574 4.574 0 01-.237 4.413 8.476 8.476 0 01-3.483 3.122 14.825 14.825 0 01-3.355 1.287 1.521 1.521 0 01-.373.043zM178.083 66.182a1.493 1.493 0 01-.636-.142l-6.664-3.12a1.5 1.5 0 01-.482-2.359l7.763-8.675a1.506 1.506 0 011.754-.358l9.925 4.653a1.5 1.5 0 01.179 2.617L178.9 65.94a1.5 1.5 0 01-.817.242zm-4.2-5.123l4.084 1.911 8.057-5.22-6.467-3.031zM159.819 83.7a1.5 1.5 0 01-.634-.141l-8.277-3.883a1.5 1.5 0 011.278-2.714l7.26 3.407 5.673-6.341-4.084-1.912-2.8 1.81A1.5 1.5 0 11156.6 71.4l3.5-2.26a1.5 1.5 0 011.451-.1l6.664 3.121a1.5 1.5 0 01.482 2.358l-7.758 8.681a1.506 1.506 0 01-1.12.5zM186.954 81.782a1.5 1.5 0 01-.764-.209l-12.284-7.262a1.5 1.5 0 01-.2-2.439l4.663-3.924a1.5 1.5 0 011.482-.261l14.567 5.338a1.5 1.5 0 01.45 2.556l-6.946 5.848a1.492 1.492 0 01-.968.353zm-9.7-8.977l9.547 5.644 4.154-3.5-11.321-4.149zM67.915 176.958a1.5 1.5 0 01-1.474-1.234c-2.662-14.706-12.2-29.509-24.9-38.63a19.444 19.444 0 00-6.587-3.375 4.334 4.334 0 00-3.884.624c-1.909 1.536-2.937 5.378-2.9 10.816a37.886 37.886 0 00.259 4.205 1.5 1.5 0 01-2.974.4 40.386 40.386 0 01-.285-4.578c-.035-4.51.633-10.456 4.014-13.177a7.232 7.232 0 016.427-1.213 22.267 22.267 0 017.675 3.864c13.307 9.558 23.31 25.09 26.1 40.533a1.5 1.5 0 01-1.208 1.743 1.559 1.559 0 01-.263.022z"/>
    <path d="M32.082 220.379c-11.63 0-22.925-3.5-26.6-8.583-.431-.6-.848-1.2-1.231-1.8a1.5 1.5 0 112.529-1.616c.356.555.744 1.109 1.141 1.664 3.13 4.33 15.786 8.321 28.95 7.12 7.411-.677 20.71-3.637 26.517-15.858a39.9 39.9 0 003.812-17.743 45.544 45.544 0 00-.758-7.825 1.5 1.5 0 012.952-.54 48.615 48.615 0 01.806 8.335 42.87 42.87 0 01-4.1 19.059c-4.778 10.055-15.06 16.291-28.954 17.559a55.59 55.59 0 01-5.064.228z"/>
    <path d="M5.508 210.689a1.5 1.5 0 01-1.256-.678c-6.764-10.329-7.024-22.608 10.93-57.847 5.757-11.3 11.89-8.468 12.15-8.341a1.5 1.5 0 01-1.287 2.71c-1.324-.553-4.733.2-8.189 6.993-19.022 37.332-16.278 46.924-11.094 54.842a1.5 1.5 0 01-1.254 2.321zM224.232 69.03a1.5 1.5 0 01-.6-2.874c.314-.137 31.4-13.992 30.5-30.308-.273-4.981-4.86-8.182-9.716-11.57-1.247-.87-2.536-1.77-3.756-2.706-4.309-3.309-5.072-6.7-4.952-8.961.223-4.295 3.592-8.464 10.003-12.391a1.5 1.5 0 111.566 2.559c-5.442 3.332-8.408 6.787-8.578 9.991-.118 2.243 1.156 4.4 3.784 6.423 1.166.894 2.426 1.774 3.646 2.625 5.231 3.65 10.641 7.425 11 13.865 1.013 18.383-30.931 32.623-32.291 33.22a1.489 1.489 0 01-.606.127z"/>
    <path d="M231.787 71.748a1.5 1.5 0 01-.667-2.844c.255-.127 25.623-12.874 29.644-28.653a16.463 16.463 0 00-2.833-14 23.152 23.152 0 00-9-7.456c-3.53-1.707-5.334-3.71-5.366-5.956-.033-2.342 1.84-4.461 5.726-6.478a1.5 1.5 0 011.383 2.663c-3.73 1.935-4.116 3.283-4.11 3.773.014.959 1.386 2.191 3.67 3.3a26.14 26.14 0 0110.154 8.438A19.346 19.346 0 01263.67 41c-4.364 17.113-30.123 30.052-31.218 30.594a1.482 1.482 0 01-.665.154zM100.935 121a1.5 1.5 0 01-1.064-2.553l.011-.01a1.5 1.5 0 111.053 2.563zM67.917 176.962a1.5 1.5 0 01-1.5-1.494v-.011a1.5 1.5 0 111.5 1.5zM5.518 210.689a1.5 1.5 0 01-.011-3h.011a1.5 1.5 0 110 3z"/>
  </g>
</svg>
