<svg xmlns="http://www.w3.org/2000/svg" viewBox="0 0 1516.655 775.189">
  <path fill="#f15a29" d="M447.64 273.313A129.172 129.172 0 10501.712 447.8a129.172 129.172 0 00-54.072-174.487zm-77.55 179.559l-26.245 16.118a13.759 13.759 0 01-8.657 2.452c-4.283-.261-9.657-1.936-11.021-8.426a13.7 13.7 0 012.276-10.677l10.948-15.33a6.178 6.178 0 00.322-6.679l-12.152-21.047a6.176 6.176 0 00-5.945-3.06l-18.75 1.815a13.69 13.69 0 01-10.384-3.366c-4.938-4.427-3.7-9.919-1.787-13.758a13.756 13.756 0 016.452-6.272l27.081-14.669c9.288-5.363 22.514-2.959 27.876 6.329 1.54 2.667 1.8 7.675 1.993 10.553a6.272 6.272 0 00.816 2.729l15.536 26.909a6.266 6.266 0 001.955 2.071c2.4 1.6 6.6 4.335 8.143 7 5.362 9.29.831 21.945-8.457 27.308zm1.8-96.165a6.277 6.277 0 00-2.771.657c-2.587 1.277-7.056 3.551-10.135 3.551-10.725 0-19.42-10.251-19.42-20.976l-.836-30.788a13.762 13.762 0 012.2-8.723c2.367-3.579 6.506-7.395 12.808-5.332a13.693 13.693 0 018.108 7.31l7.8 17.146a6.177 6.177 0 005.622 3.619h24.3a6.178 6.178 0 005.623-3.619l7.8-17.146a13.7 13.7 0 018.108-7.31c6.3-2.063 10.441 1.753 12.808 5.332a13.756 13.756 0 012.206 8.723l-.837 30.788c0 10.725-8.694 20.976-19.419 20.976-3.08 0-7.549-2.274-10.136-3.551a6.273 6.273 0 00-2.77-.657zm112.485 47.965a13.692 13.692 0 01-10.385 3.366l-18.75-1.815a6.177 6.177 0 00-5.945 3.06l-12.148 21.047a6.178 6.178 0 00.323 6.679l10.947 15.33a13.691 13.691 0 012.277 10.677c-1.364 6.49-6.739 8.165-11.022 8.426a13.762 13.762 0 01-8.657-2.452l-26.244-16.118c-9.289-5.362-13.82-18.018-8.457-27.306 1.54-2.667 5.744-5.4 8.143-7a6.266 6.266 0 001.955-2.071l15.536-26.909a6.272 6.272 0 00.816-2.729c.188-2.878.452-7.886 1.992-10.553 5.363-9.288 18.588-11.692 27.876-6.329l27.081 14.669a13.756 13.756 0 016.452 6.272c1.916 3.837 3.152 9.329-1.786 13.756zM732.269 448.592a11.777 11.777 0 014.164.781 11.384 11.384 0 013.991 2.691l23.256 24.468a96.536 96.536 0 01-38.266 30.11q-23 10.151-54.4 10.151-28.809 0-51.628-9.8a111.678 111.678 0 01-38.7-27.075 119.144 119.144 0 01-24.386-40.956 151.2 151.2 0 01-8.5-51.455q0-28.283 9.718-51.975a121.2 121.2 0 0127.159-40.866 122.5 122.5 0 0141.736-26.727q24.287-9.539 53.621-9.539a136.653 136.653 0 0126.811 2.516 131.149 131.149 0 0123.515 6.94 110.8 110.8 0 0120.13 10.586 97.3 97.3 0 0116.31 13.621l-19.784 26.551a25.115 25.115 0 01-4.512 4.424q-2.6 2-7.288 2a13.008 13.008 0 01-5.9-1.387 65.006 65.006 0 01-5.9-3.384q-3.126-1.993-6.855-4.339a53 53 0 00-8.851-4.339 73.692 73.692 0 00-11.974-3.384 81.946 81.946 0 00-16.053-1.388 73.429 73.429 0 00-29.155 5.64 63.886 63.886 0 00-22.646 16.14 74.829 74.829 0 00-14.751 25.424 99.694 99.694 0 00-5.293 33.491q0 19.439 5.293 34.534a75.8 75.8 0 0014.4 25.423A61.1 61.1 0 00648.8 463.17a63.522 63.522 0 0026.03 5.379 124.792 124.792 0 0014.578-.78 59.845 59.845 0 0012.234-2.691 56.553 56.553 0 0010.76-4.944 71.847 71.847 0 0010.324-7.55 20.674 20.674 0 014.513-2.864 11.834 11.834 0 015.03-1.128zM909.451 471.673a99.836 99.836 0 0021.518-2.081 105.031 105.031 0 0017.7-5.554v-38.353h-24.988q-5.556 0-8.677-2.949a9.823 9.823 0 01-3.124-7.462V383h89.893v106.721a132.282 132.282 0 01-20.217 12.234 130.383 130.383 0 01-22.386 8.418 167.015 167.015 0 01-25.337 4.859 251.124 251.124 0 01-28.894 1.561 132.578 132.578 0 01-51.368-9.8 122.98 122.98 0 01-67.939-68.028 133.189 133.189 0 01-9.806-51.455q0-28.283 9.372-51.975a117.043 117.043 0 0126.811-40.866 121.659 121.659 0 0142.169-26.727q24.731-9.542 55.273-9.543a161.221 161.221 0 0129.675 2.6 145.868 145.868 0 0125.6 7.118 117.731 117.731 0 0121.431 10.758 115.548 115.548 0 0117.355 13.534L986.5 318.266a18.932 18.932 0 01-5.814 5.727 13.81 13.81 0 01-7.376 2.081 20.3 20.3 0 01-10.758-3.469q-6.943-4.167-13.1-7.2a80.443 80.443 0 00-12.582-4.947 83.035 83.035 0 00-13.536-2.776 132.949 132.949 0 00-15.967-.868 72.8 72.8 0 00-29.674 5.815 63.6 63.6 0 00-22.473 16.4 74.179 74.179 0 00-14.32 25.419 102.4 102.4 0 00-5.033 33.059q0 20.135 5.554 35.749a76.756 76.756 0 0015.358 26.379 65.135 65.135 0 0023.254 16.4 75.271 75.271 0 0029.418 5.638zM1074.83 259.615a16.458 16.458 0 014.685 1.3 15.663 15.663 0 013.991 2.692 45.857 45.857 0 014.338 4.683l120.089 153.751-1.388-162.773h51.713v257.525h-30.542a28.147 28.147 0 01-11.453-2.084 24.446 24.446 0 01-9.024-7.635l-119.221-153.406 1.215 163.125h-51.715V259.268h30.891a49.887 49.887 0 016.421.347z"/>
</svg>
