<?xml version="1.0" standalone="no"?>
<!DOCTYPE svg PUBLIC "-//W3C//DTD SVG 20010904//EN"
 "http://www.w3.org/TR/2001/REC-SVG-20010904/DTD/svg10.dtd">
<svg version="1.0" xmlns="http://www.w3.org/2000/svg"
 width="1024.000000pt" height="1024.000000pt" viewBox="0 0 1024.000000 1024.000000"
 preserveAspectRatio="xMidYMid meet">
<metadata>
Created by potrace 1.11, written by Peter Selinger 2001-2013
</metadata>
<g transform="translate(0.000000,1024.000000) scale(0.100000,-0.100000)"
fill="#000000" stroke="none">
<path d="M4770 10229 c-997 -74 -1939 -425 -2730 -1018 -965 -723 -1655 -1795
-1919 -2981 -146 -656 -159 -1361 -36 -2035 139 -768 469 -1522 944 -2155 723
-965 1795 -1655 2981 -1919 656 -146 1361 -159 2035 -36 768 139 1522 469
2155 944 965 723 1655 1795 1919 2981 146 656 159 1361 36 2035 -194 1069
-755 2095 -1540 2818 -837 772 -1858 1235 -2980 1352 -180 19 -689 27 -865 14z
m-1009 -1435 c88 -26 170 -75 237 -141 70 -70 99 -126 313 -601 121 -269 151
-317 222 -351 42 -21 56 -21 587 -21 531 0 545 0 587 21 71 34 101 82 222 351
214 475 243 531 313 601 151 150 353 197 511 119 87 -43 192 -153 241 -254 62
-124 62 -129 42 -885 -9 -373 -22 -707 -27 -743 -59 -392 -389 -708 -744 -711
-97 -1 -212 34 -357 108 l-93 48 -695 0 -695 0 -93 -48 c-145 -74 -260 -109
-357 -108 -312 3 -604 241 -713 581 -12 36 -26 94 -31 130 -5 36 -18 370 -27
743 -14 522 -15 693 -6 745 30 176 189 369 345 417 58 19 153 18 218 -1z
m-567 -2893 c155 -46 291 -130 376 -232 91 -110 121 -193 140 -389 6 -63 13
-134 16 -156 4 -31 86 -182 330 -605 179 -310 333 -572 342 -582 9 -11 58 -47
108 -82 204 -143 272 -220 321 -368 23 -72 27 -98 27 -217 1 -112 -3 -149 -22
-215 -48 -170 -163 -346 -289 -446 -79 -63 -1194 -747 -1263 -775 -121 -50
-269 -51 -406 -4 -74 26 -113 51 -162 104 -125 136 -147 360 -53 546 15 30
130 198 255 373 125 174 236 336 246 360 25 53 25 130 1 182 -10 22 -127 229
-260 460 -153 265 -256 433 -279 456 -21 20 -60 44 -87 54 -48 19 -50 19 -399
-16 -431 -42 -602 -45 -688 -10 -145 57 -252 163 -290 285 -57 187 39 436 217
559 89 62 1176 651 1270 688 120 47 195 59 345 55 97 -3 154 -10 204 -25z
m4254 13 c42 -9 109 -28 147 -43 94 -37 1181 -626 1270 -688 178 -123 274
-372 217 -559 -38 -122 -145 -228 -290 -285 -86 -35 -257 -32 -688 10 -349 35
-351 35 -399 16 -27 -10 -66 -34 -87 -54 -23 -23 -126 -191 -279 -456 -133
-231 -250 -438 -260 -460 -24 -52 -24 -129 1 -182 10 -24 121 -186 246 -360
125 -175 240 -343 255 -373 94 -186 72 -410 -53 -546 -49 -53 -88 -78 -162
-104 -137 -47 -285 -46 -406 4 -67 27 -1182 711 -1264 775 -124 97 -239 276
-288 446 -19 66 -23 103 -22 215 0 119 4 145 27 217 49 148 117 225 321 368
50 35 99 71 108 82 9 10 163 272 342 582 244 423 326 574 330 605 3 22 10 93
16 156 19 196 49 279 140 389 101 121 283 221 457 251 83 13 240 11 321 -6z"/>
</g>
</svg>
