<svg xmlns="http://www.w3.org/2000/svg" width="372.073" height="267.03" viewBox="0 0 372.073 267.03">
  <g id="Layer_2" data-name="Layer 2">
    <path fill="#f2f2f2" d="M367.59 169.15c11.02 15.74-12.06 29.45-12.06 29.45l-10.72-11.35-20.51-21.69s25.53-14.52 1.25-19.52a19.36 19.36 0 00-4.98-.38v-.04s27.04-5.01 47.02 23.53z"/>
    <path fill="#fff" d="M344.81 187.25l-.01.01a36.986 36.986 0 00-9.85 7.39c-32.85-14.35-23.23-46.47-23.23-46.47a21.325 21.325 0 018.85-2.52 19.36 19.36 0 014.98.38c24.28 5-1.25 19.52-1.25 19.52zM334.9 6.57s10.52 20.09-10.25 56.87a.01.01 0 00-.01.01c-25.73 17.53-72.65-16.12-72.65-16.12 7.64-6.79 20.65-21.79 18.58-43.76 25.25 9.62 64.33 3 64.33 3z"/>
    <path fill="#f2f2f2" d="M334.95 194.65a36.308 36.308 0 00-8.4 13.98l-40.81-25.29s9.79-26.68 25.98-35.16c0 0-9.62 32.12 23.23 46.47zM324.64 63.45a162.407 162.407 0 01-8.98 14.06c-11.03 15.52-19.01 19.6-24.73 18.21a.077.077 0 01-.03-.01c-.01.01-.01 0-.01 0-.17-.07-.86-.31-1.97-.73-9.44-4.8-11.74-25.28-11.74-25.28L246.7 51.5v-.01a46.288 46.288 0 005.29-4.16s46.92 33.65 72.65 16.12z"/>
    <path fill="#7dc862" d="M297.81 225.55v18.21h-21.78v21.77h-18.21v-21.77h-21.77v-18.21h21.77v-21.78h18.21v21.78h21.78z"/>
    <path fill="#fff" d="M277.18 69.7s2.3 20.48 11.74 25.28c-11.07-4.19-63.77-25.62-55.03-51.13l12.81 7.65z"/>
    <path fill="#db4528" d="M237.6 91.59l-6.94 43.53-30.75 7 6.82-42.82 30.87-7.71z"/>
    <path fill="#f15a29" d="M237.6 91.59l-30.87 7.71L71.52 71.15l30.86-7.71L237.6 91.59z"/>
    <path fill="#f2f2f2" d="M230.66 135.12L212.82 247l-30.86 7.71 12.15-76.24 5.8-36.35 30.75-7z"/>
    <path fill="#f15a29" d="M206.73 99.3l-6.82 42.82-135.22-28.15 6.83-42.82L206.73 99.3z"/>
    <path fill="#fff" d="M199.91 142.12l-5.8 36.35c-13.71 60.36-73.06 63.32-74.02 63.36h-.01l-41.1-8.56-.01-.01c-.55-.36-22.03-14.5-12.33-35.16a34.76 34.76 0 00-16.57 7.61l14.62-91.74zm-46.09 71.83l1.29-8.1-7.55-1.57 7.11-44.59-8.05-1.68-16.47 10.8 2.33 5.34a3.512 3.512 0 00.82 1.08 2.771 2.771 0 001.4.72 2.579 2.579 0 001 .01 3.367 3.367 0 001.12-.46l5.97-3.87c-.28 1.41-.53 2.76-.74 4.06l-4.23 26.56-8.81-1.83-1.29 8.1zm-30.17-47.17a14.732 14.732 0 00-.11-5.42 13.5 13.5 0 00-2.07-4.93 14.584 14.584 0 00-3.99-3.91 16.614 16.614 0 00-5.86-2.36 17.931 17.931 0 00-6.03-.26 13.374 13.374 0 00-5.33 1.9 15.349 15.349 0 00-4.33 4.13 21.567 21.567 0 00-3.03 6.47l4.99 2.12c.25.1.49.19.72.26a5.318 5.318 0 00.68.18 2.865 2.865 0 002.2-.29 5.109 5.109 0 001.65-2.08 7.913 7.913 0 011.12-1.64 5.917 5.917 0 011.47-1.18 5.8 5.8 0 011.79-.64 5.593 5.593 0 012.07.06 5.065 5.065 0 013.71 2.51 8.006 8.006 0 01.55 5.06 12.092 12.092 0 01-.76 2.72 4.122 4.122 0 01-1.62 1.88 6.485 6.485 0 01-2.94.83 17.453 17.453 0 01-4.7-.46l-1.24 7.73a21.867 21.867 0 015.22 1.63 6.614 6.614 0 012.6 2.09 4.4 4.4 0 01.78 2.57 21.314 21.314 0 01-.28 3.1 8.133 8.133 0 01-.82 2.48 6.651 6.651 0 01-1.57 2.01 6.247 6.247 0 01-8.73-.89 14.119 14.119 0 01-2.31-4.98 3.113 3.113 0 00-1-1.57 3.828 3.828 0 00-1.73-.83 5.8 5.8 0 00-1.11-.11 4.179 4.179 0 00-1.18.16l-4.66 1.12a33.459 33.459 0 001.58 6.9 17.507 17.507 0 002.78 5.12 13.938 13.938 0 004.12 3.47 20.142 20.142 0 005.69 2.02 18.382 18.382 0 006.26.24 13.695 13.695 0 0010-6.45 18.142 18.142 0 002.48-7.02q1.425-8.865-5.71-13.48a11.227 11.227 0 003.17-1.02 8.2 8.2 0 002.51-1.92 10.131 10.131 0 001.83-3.02 18.7 18.7 0 001.14-4.3z"/>
    <path fill="#f2f2f2" d="M194.11 178.47l-12.15 76.24-61.87-12.88c.96-.04 60.31-3 74.02-63.36z"/>
    <path fill="#7dc862" d="M176.76 18.08v13.86h-16.58v16.59h-13.86V31.94h-16.58V18.08h16.58V1.5h13.86v16.58h16.58z"/>
    <path fill="#999" d="M155.11 205.85l-1.29 8.1-26.1-5.43 1.29-8.1 8.81 1.83 4.23-26.56c.21-1.3.46-2.65.74-4.06l-5.97 3.87a3.367 3.367 0 01-1.12.46 2.579 2.579 0 01-1-.01 2.771 2.771 0 01-1.4-.72 3.512 3.512 0 01-.82-1.08l-2.33-5.34 16.47-10.8 8.05 1.68-7.11 44.59zM123.54 161.36a14.732 14.732 0 01.11 5.42 18.7 18.7 0 01-1.14 4.3 10.131 10.131 0 01-1.83 3.02 8.2 8.2 0 01-2.51 1.92 11.227 11.227 0 01-3.17 1.02q7.125 4.62 5.71 13.48a18.142 18.142 0 01-2.48 7.02 13.695 13.695 0 01-10 6.45 18.382 18.382 0 01-6.26-.24 20.142 20.142 0 01-5.69-2.02 13.938 13.938 0 01-4.12-3.47 17.507 17.507 0 01-2.78-5.12 33.459 33.459 0 01-1.58-6.9l4.66-1.12a4.179 4.179 0 011.18-.16 5.8 5.8 0 011.11.11 3.828 3.828 0 011.73.83 3.113 3.113 0 011 1.57 14.119 14.119 0 002.31 4.98 6.121 6.121 0 008.73.89 6.651 6.651 0 001.57-2.01 8.133 8.133 0 00.82-2.48 21.314 21.314 0 00.28-3.1 4.4 4.4 0 00-.78-2.57 6.614 6.614 0 00-2.6-2.09 21.867 21.867 0 00-5.22-1.63l1.24-7.73a17.453 17.453 0 004.7.46 6.485 6.485 0 002.94-.83 4.122 4.122 0 001.62-1.88 12.092 12.092 0 00.76-2.72 8.006 8.006 0 00-.55-5.06 5.065 5.065 0 00-3.71-2.51 5.593 5.593 0 00-2.07-.06 5.8 5.8 0 00-1.79.64 5.917 5.917 0 00-1.47 1.18 7.913 7.913 0 00-1.12 1.64 5.109 5.109 0 01-1.65 2.08 2.865 2.865 0 01-2.2.29 5.318 5.318 0 01-.68-.18c-.23-.07-.47-.16-.72-.26l-4.99-2.12a21.567 21.567 0 013.03-6.47 15.349 15.349 0 014.33-4.13 13.374 13.374 0 015.33-1.9 17.931 17.931 0 016.03.26 16.614 16.614 0 015.86 2.36 14.584 14.584 0 013.99 3.91 13.5 13.5 0 012.07 4.93z"/>
    <path fill="#f2f2f2" d="M78.98 233.27l-32.24-6.71 3.32-20.85s9.98 19.14 28.91 27.55z"/>
    <path fill="#f2f2f2" d="M66.64 198.1c-9.7 20.66 11.78 34.8 12.33 35.16-18.93-8.41-28.91-27.55-28.91-27.55h.01a34.76 34.76 0 0116.57-7.61z"/>
    <path fill="#7dc862" d="M31.94 130.89v8.97H21.21v10.74h-8.98v-10.74H1.5v-8.97h10.73v-10.74h8.98v10.74h10.73z"/>
    <path d="M105.826 205.653a20.45 20.45 0 01-4.16-.434 21.7 21.7 0 01-6.111-2.176 15.552 15.552 0 01-4.564-3.843 19.055 19.055 0 01-3.023-5.556 35.067 35.067 0 01-1.655-7.21 1.5 1.5 0 011.137-1.652l4.659-1.12a5.536 5.536 0 011.574-.2h.006a7.161 7.161 0 011.349.137 5.337 5.337 0 012.416 1.162 4.577 4.577 0 011.469 2.3 12.785 12.785 0 002.032 4.446 4.911 4.911 0 004.869 1.6 4.525 4.525 0 001.719-.9 5.141 5.141 0 001.217-1.564 6.64 6.64 0 00.669-2.027 19.536 19.536 0 00.261-2.878 2.9 2.9 0 00-.52-1.711 5.28 5.28 0 00-2.034-1.593 20.5 20.5 0 00-4.849-1.5 1.5 1.5 0 01-1.178-1.706l1.24-7.73a1.5 1.5 0 011.79-1.23 16.077 16.077 0 004.282.431 5.091 5.091 0 002.251-.6 2.615 2.615 0 001.045-1.213 10.614 10.614 0 00.654-2.367 6.587 6.587 0 00-.395-4.108 3.626 3.626 0 00-2.689-1.743 4.1 4.1 0 00-1.516-.051 4.292 4.292 0 00-1.3.468 4.407 4.407 0 00-1.089.874 6.319 6.319 0 00-.9 1.318 6.45 6.45 0 01-2.192 2.672 4.319 4.319 0 01-3.3.489 6.742 6.742 0 01-.854-.227 9.989 9.989 0 01-.8-.29l-5.019-2.132a1.5 1.5 0 01-.852-1.807 23.2 23.2 0 013.249-6.917 16.918 16.918 0 014.762-4.533 14.933 14.933 0 015.918-2.11 19.553 19.553 0 016.53.276h.011a18.16 18.16 0 016.384 2.581 16.154 16.154 0 014.395 4.312 15.1 15.1 0 012.3 5.477 16.331 16.331 0 01.12 5.96 20.3 20.3 0 01-1.235 4.634 11.671 11.671 0 01-2.1 3.447 9.714 9.714 0 01-2.959 2.26c-.2.1-.405.2-.615.288 3.506 3.3 4.841 7.691 3.97 13.106a19.688 19.688 0 01-2.7 7.591 15.2 15.2 0 01-11.061 7.128 19.35 19.35 0 01-2.608.171zm-16.343-18.275a30.317 30.317 0 001.311 5.258 16.055 16.055 0 002.536 4.685 12.386 12.386 0 003.683 3.1 18.717 18.717 0 005.26 1.86 16.951 16.951 0 005.754.223 12.2 12.2 0 008.94-5.773 16.753 16.753 0 002.262-6.444c.854-5.314-.8-9.234-5.045-11.988a1.5 1.5 0 01.561-2.737 9.743 9.743 0 002.749-.881 6.76 6.76 0 002.066-1.578 8.727 8.727 0 001.56-2.586 17.31 17.31 0 001.048-3.967 13.175 13.175 0 00-.1-4.886 12.082 12.082 0 00-1.843-4.394 13.171 13.171 0 00-3.583-3.5 15.22 15.22 0 00-5.332-2.138 16.554 16.554 0 00-5.521-.241 11.794 11.794 0 00-4.741 1.688 13.937 13.937 0 00-3.906 3.736 18.984 18.984 0 00-2.395 4.746l3.728 1.582c.178.072.377.148.569.206a4.082 4.082 0 00.524.142c.748.154 1.018-.02 1.107-.078a3.621 3.621 0 001.124-1.494 9.318 9.318 0 011.332-1.955 7.437 7.437 0 011.849-1.491 7.338 7.338 0 012.262-.813 7.12 7.12 0 012.649.065 6.521 6.521 0 014.735 3.275 9.465 9.465 0 01.706 6 13.7 13.7 0 01-.86 3.07 5.654 5.654 0 01-2.2 2.562 7.885 7.885 0 01-3.619 1.057 16.169 16.169 0 01-3.584-.2l-.773 4.825a20.234 20.234 0 014.19 1.444 8.055 8.055 0 013.173 2.6 5.863 5.863 0 011.032 3.417 22.667 22.667 0 01-.3 3.321 9.6 9.6 0 01-.969 2.933 8.219 8.219 0 01-1.924 2.458 7.394 7.394 0 01-6.508 1.57 7.416 7.416 0 01-4.364-2.651 15.389 15.389 0 01-2.589-5.514 1.62 1.62 0 00-.519-.832 2.345 2.345 0 00-1.076-.512 4.266 4.266 0 00-.855-.079 2.882 2.882 0 00-.74.109zM153.82 215.45a1.5 1.5 0 01-.305-.031l-26.1-5.43a1.5 1.5 0 01-1.176-1.705l1.29-8.1a1.5 1.5 0 011.786-1.233l7.271 1.51 3.983-25.007c.035-.219.073-.442.111-.669l-3.044 1.973a4.972 4.972 0 01-1.649.674 4.138 4.138 0 01-1.616-.019 4.245 4.245 0 01-2.1-1.095 4.964 4.964 0 01-1.159-1.559l-2.335-5.35a1.5 1.5 0 01.553-1.854l16.47-10.8a1.5 1.5 0 011.129-.214l8.051 1.68a1.5 1.5 0 011.174 1.7l-6.886 43.179 6.148 1.278a1.5 1.5 0 011.176 1.705l-1.29 8.1a1.5 1.5 0 01-1.482 1.264zm-24.393-8.107l23.159 4.818.818-5.134-6.149-1.278a1.5 1.5 0 01-1.176-1.7l6.886-43.177-6.042-1.262-14.892 9.765 1.824 4.18a2.083 2.083 0 00.478.592 1.263 1.263 0 00.661.337 1.173 1.173 0 00.454 0 1.933 1.933 0 00.585-.259l5.942-3.851a1.5 1.5 0 012.287 1.55c-.3 1.518-.54 2.829-.731 4.008l-4.231 26.554a1.5 1.5 0 01-1.786 1.233l-7.271-1.511z"/>
    <path d="M50.072 207.21a1.484 1.484 0 01-.238-.018 1.5 1.5 0 01-1.245-1.717l21.45-134.561a1.5 1.5 0 011.787-1.232l135.21 28.15a1.5 1.5 0 01-.611 2.937L72.754 72.939l-21.2 133.007a1.5 1.5 0 01-1.482 1.264z"/>
    <path d="M120.082 243.331a1.473 1.473 0 01-.308-.033l-73.339-15.269a1.5 1.5 0 01-1.176-1.7l3.32-20.849a1.5 1.5 0 112.963.471l-3.1 19.437 71.94 14.979a1.5 1.5 0 01-.3 2.969z"/>
    <path d="M181.962 256.211a1.549 1.549 0 01-.308-.032L119.785 243.3a1.5 1.5 0 01.611-2.938l61.87 12.881a1.5 1.5 0 01-.3 2.969zM199.91 143.62a1.506 1.506 0 01-.306-.031l-135.219-28.15A1.5 1.5 0 0165 112.5l134.9 28.084 30.431-6.927a1.5 1.5 0 11.666 2.925l-30.75 7a1.559 1.559 0 01-.337.038z"/>
    <path d="M212.822 248.5a1.478 1.478 0 01-.238-.019 1.5 1.5 0 01-1.245-1.717l24.555-154-133.819-27.855a1.5 1.5 0 11.612-2.937l135.219 28.15a1.5 1.5 0 011.176 1.7L214.3 247.236a1.5 1.5 0 01-1.478 1.264z"/>
    <path d="M181.96 256.21a1.5 1.5 0 01-1.481-1.735l24.77-155.411a1.5 1.5 0 011.118-1.219l30.87-7.71a1.5 1.5 0 11.727 2.91l-29.908 7.47-24.256 152.19 28.658-7.16a1.5 1.5 0 01.727 2.91l-30.861 7.711a1.5 1.5 0 01-.364.044zM71.52 72.651a1.5 1.5 0 01-.363-2.956l30.861-7.71a1.5 1.5 0 01.726 2.911l-30.86 7.709a1.476 1.476 0 01-.364.046zM78.974 234.768a1.487 1.487 0 01-.716-.183C59.136 226.039 49.147 207.2 48.73 206.4a1.5 1.5 0 01.048-1.471 1.525 1.525 0 01.416-.448 36.043 36.043 0 0117.263-7.874A1.5 1.5 0 0168 198.738c-9.014 19.2 10.686 32.536 11.775 33.255a1.5 1.5 0 01-.8 2.775zm-26.985-28.693A72.115 72.115 0 0068.3 224.951c-4.384-6.011-7.809-14.558-4.132-24.805a33.839 33.839 0 00-12.179 5.929zM324.649 64.941a1.5 1.5 0 01-1.3-2.238c10.494-18.584 12.709-32.683 12.719-41.239a37.425 37.425 0 00-2.082-13.233 201.175 201.175 0 01-21.725 1.946c-16.188.571-29.64-.919-40.027-4.418 1.045 21.264-11.487 35.8-19.244 42.692a47.394 47.394 0 01-5.479 4.3 1.5 1.5 0 01-1.614-2.528 45.7 45.7 0 005.1-4.016c7.614-6.767 20.085-21.282 18.086-42.5a1.5 1.5 0 012.017-1.539c24.571 9.361 63.159 2.989 63.546 2.923a1.5 1.5 0 011.579.784c.445.849 10.659 21.238-10.273 58.3a1.5 1.5 0 01-1.303.766z"/>
    <path d="M293.048 97.471a10.423 10.423 0 01-2.472-.293 1.5 1.5 0 01.709-2.915c5.933 1.438 13.936-4.654 23.153-17.622a161.646 161.646 0 008.9-13.929 1.5 1.5 0 012.611 1.476 164.592 164.592 0 01-9.063 14.19c-9.019 12.687-17.022 19.093-23.838 19.093z"/>
    <path d="M290.892 97.211a1.516 1.516 0 01-.34-.039 9.929 9.929 0 01-2.24-.818c-6.183-2.344-21.812-8.7-35.173-17.7-17.661-11.895-24.615-23.769-20.667-35.29a1.5 1.5 0 012.188-.8l43.289 25.85a1.5 1.5 0 01.722 1.12c.022.2 2.308 19.629 10.86 24.075.6.226 1.066.4 1.39.515.279.1.463.169.543.2a1.5 1.5 0 01-.572 2.887zM234.8 46.14c-2.128 9.548 4.594 19.64 20.014 30.026a170.03 170.03 0 0027.626 14.593c-4.587-6.97-6.262-17.264-6.656-20.145z"/>
    <path d="M290.931 97.22a1.55 1.55 0 01-.213-.016 1.53 1.53 0 01-.4-.1 1.5 1.5 0 01.571-2.891 1.344 1.344 0 01.471.073 1.5 1.5 0 01-.429 2.937zm1.46-1.51zm-1.491 0zM326.549 210.13a1.493 1.493 0 01-.788-.225l-40.811-25.29a1.5 1.5 0 01-.618-1.791c.408-1.112 10.18-27.324 26.692-35.972a23 23 0 019.115-2.669 1.583 1.583 0 01.158-.038c.278-.05 28.225-4.848 48.522 24.145a16.064 16.064 0 012.892 12.984C369.4 192 356.83 199.572 356.3 199.89a1.5 1.5 0 01-1.857-.26l-9.927-10.512A35.825 35.825 0 00328 209.022a1.5 1.5 0 01-.9 1 1.532 1.532 0 01-.551.108zm-38.956-27.406l38.145 23.638a39.337 39.337 0 018.124-12.745 38.512 38.512 0 018.529-6.743l-19.18-20.283a1.5 1.5 0 01.348-2.335c4.532-2.582 11.509-8.026 10.935-11.644-.339-2.133-3.622-3.945-9.246-5.1a18.133 18.133 0 00-4.594-.351 19.923 19.923 0 00-8.238 2.351c-13.616 7.132-22.758 28.095-24.823 33.212zm39.074-16.845l29.1 30.785c2.923-1.967 11.338-8.221 13.014-16.03a13.173 13.173 0 00-2.418-10.623c-10.013-14.3-21.839-19.77-30-21.837q-1.012-.257-1.982-.456a6.6 6.6 0 013.072 4.426c.893 5.613-7.131 11.411-10.786 13.735zM160.181 50.03H146.32a1.5 1.5 0 01-1.5-1.5V33.44h-15.08a1.5 1.5 0 01-1.5-1.5V18.08a1.5 1.5 0 011.5-1.5h15.08V1.5a1.5 1.5 0 011.5-1.5h13.861a1.5 1.5 0 011.5 1.5v15.08h15.08a1.5 1.5 0 011.5 1.5v13.86a1.5 1.5 0 01-1.5 1.5h-15.08v15.09a1.5 1.5 0 01-1.5 1.5zm-12.361-3h10.861V31.94a1.5 1.5 0 011.5-1.5h15.08V19.58h-15.08a1.5 1.5 0 01-1.5-1.5V3H147.82v15.08a1.5 1.5 0 01-1.5 1.5h-15.08v10.86h15.08a1.5 1.5 0 011.5 1.5zM276.03 267.03h-18.21a1.5 1.5 0 01-1.5-1.5v-20.27h-20.269a1.5 1.5 0 01-1.5-1.5v-18.21a1.5 1.5 0 011.5-1.5h20.269v-20.28a1.5 1.5 0 011.5-1.5h18.21a1.5 1.5 0 011.5 1.5v20.28h20.281a1.5 1.5 0 011.5 1.5v18.21a1.5 1.5 0 01-1.5 1.5H277.53v20.27a1.5 1.5 0 01-1.5 1.5zm-16.71-3h15.21v-20.27a1.5 1.5 0 011.5-1.5h20.281v-15.21H276.03a1.5 1.5 0 01-1.5-1.5v-20.28h-15.21v20.28a1.5 1.5 0 01-1.5 1.5h-20.269v15.21h20.269a1.5 1.5 0 011.5 1.5zM21.21 152.1h-8.98a1.5 1.5 0 01-1.5-1.5v-9.24H1.5a1.5 1.5 0 01-1.5-1.5v-8.97a1.5 1.5 0 011.5-1.5h9.23v-9.24a1.5 1.5 0 011.5-1.5h8.98a1.5 1.5 0 011.5 1.5v9.24h9.23a1.5 1.5 0 011.5 1.5v8.97a1.5 1.5 0 01-1.5 1.5h-9.23v9.24a1.5 1.5 0 01-1.5 1.5zm-7.48-3h5.98v-9.24a1.5 1.5 0 011.5-1.5h9.23v-5.97h-9.23a1.5 1.5 0 01-1.5-1.5v-9.24h-5.98v9.24a1.5 1.5 0 01-1.5 1.5H3v5.97h9.23a1.5 1.5 0 011.5 1.5z"/>
  </g>
</svg>
