<svg width="1001" height="259" viewBox="0 0 1001 259" fill="none" xmlns="http://www.w3.org/2000/svg">
  <path d="M189.64 15.313A129.172 129.172 0 1069.218 243.874 129.172 129.172 0 00189.64 15.313zm-77.55 179.559L85.845 210.99a13.761 13.761 0 01-8.657 2.452c-4.283-.261-9.657-1.936-11.021-8.426a13.7 13.7 0 012.276-10.677l10.948-15.33a6.178 6.178 0 00.322-6.679l-12.152-21.047a6.178 6.178 0 00-5.945-3.06l-18.75 1.815a13.694 13.694 0 01-10.384-3.366c-4.938-4.427-3.7-9.919-1.787-13.758a13.755 13.755 0 016.452-6.272l27.081-14.669c9.288-5.363 22.514-2.959 27.876 6.329 1.54 2.667 1.8 7.675 1.993 10.553.06.96.338 1.894.816 2.729l15.536 26.909a6.266 6.266 0 001.955 2.071c2.4 1.6 6.6 4.335 8.143 7 5.362 9.29.831 21.945-8.457 27.308zm1.8-96.165a6.276 6.276 0 00-2.771.657c-2.587 1.277-7.056 3.551-10.135 3.551-10.725 0-19.42-10.251-19.42-20.976l-.836-30.788a13.763 13.763 0 012.2-8.723c2.367-3.579 6.506-7.395 12.808-5.332a13.692 13.692 0 018.108 7.31l7.8 17.146a6.176 6.176 0 005.622 3.619h24.3a6.176 6.176 0 005.623-3.619l7.8-17.146a13.706 13.706 0 018.108-7.31c6.3-2.063 10.441 1.753 12.808 5.332a13.76 13.76 0 012.206 8.723l-.837 30.788c0 10.725-8.694 20.976-19.419 20.976-3.08 0-7.549-2.274-10.136-3.551a6.272 6.272 0 00-2.77-.657H113.89zm112.485 47.965a13.702 13.702 0 01-10.385 3.366l-18.75-1.815a6.175 6.175 0 00-5.945 3.06l-12.148 21.047a6.18 6.18 0 00.323 6.679l10.947 15.33a13.687 13.687 0 012.277 10.677c-1.364 6.49-6.739 8.165-11.022 8.426a13.76 13.76 0 01-8.657-2.452l-26.244-16.118c-9.289-5.362-13.82-18.018-8.457-27.306 1.54-2.667 5.744-5.4 8.143-7a6.266 6.266 0 001.955-2.071l15.536-26.909a6.267 6.267 0 00.816-2.729c.188-2.878.452-7.886 1.992-10.553 5.363-9.288 18.588-11.692 27.876-6.329l27.081 14.669a13.755 13.755 0 016.452 6.272c1.916 3.837 3.152 9.329-1.786 13.756h-.004zm247.894 43.92c1.424.007 2.835.271 4.164.781a11.38 11.38 0 013.991 2.691l23.256 24.468a96.527 96.527 0 01-38.266 30.11c-15.333 6.767-33.467 10.151-54.4 10.151-19.206 0-36.415-3.267-51.628-9.8a111.674 111.674 0 01-38.7-27.075 119.155 119.155 0 01-24.386-40.956 151.215 151.215 0 01-8.5-51.455c0-18.855 3.239-36.18 9.718-51.975a121.194 121.194 0 0127.159-40.866 122.499 122.499 0 0141.736-26.727C384.604 3.579 402.478.4 422.034.4a136.65 136.65 0 0126.811 2.516 131.135 131.135 0 0123.515 6.94 110.808 110.808 0 0120.13 10.586 97.282 97.282 0 0116.31 13.621l-19.784 26.551a25.13 25.13 0 01-4.512 4.424c-1.733 1.333-4.163 2-7.288 2a13.01 13.01 0 01-5.9-1.387 65.023 65.023 0 01-5.9-3.384 1353.125 1353.125 0 00-6.855-4.339 52.986 52.986 0 00-8.851-4.339 73.681 73.681 0 00-11.974-3.384 81.942 81.942 0 00-16.053-1.388 73.43 73.43 0 00-29.155 5.64 63.889 63.889 0 00-22.646 16.14 74.84 74.84 0 00-14.751 25.424 99.688 99.688 0 00-5.293 33.491c0 12.959 1.764 24.471 5.293 34.534a75.805 75.805 0 0014.4 25.423A61.1 61.1 0 00390.8 205.17a63.509 63.509 0 0026.03 5.379c4.87.025 9.738-.236 14.578-.78a59.845 59.845 0 0012.234-2.691 56.558 56.558 0 0010.76-4.944 71.83 71.83 0 0010.324-7.55 20.655 20.655 0 014.513-2.864 11.837 11.837 0 015.03-1.128zm177.182 23.081a99.818 99.818 0 0021.518-2.081 105.06 105.06 0 0017.7-5.554v-38.353h-24.988c-3.704 0-6.596-.983-8.677-2.949a9.83 9.83 0 01-3.124-7.462V125h89.893v106.721a132.299 132.299 0 01-20.217 12.234 130.349 130.349 0 01-22.386 8.418 166.973 166.973 0 01-25.337 4.859 251.283 251.283 0 01-28.894 1.561 132.577 132.577 0 01-51.368-9.8 122.975 122.975 0 01-67.939-68.028 133.186 133.186 0 01-9.806-51.455c0-18.855 3.124-36.18 9.372-51.975a117.054 117.054 0 0126.811-40.866 121.652 121.652 0 0142.169-26.727C612.665 3.581 631.09.4 651.451.399c9.951-.051 19.885.82 29.675 2.6a145.872 145.872 0 0125.6 7.118 117.742 117.742 0 0121.431 10.758 115.564 115.564 0 0117.355 13.534L728.5 60.266a18.939 18.939 0 01-5.814 5.727 13.809 13.809 0 01-7.376 2.081 20.3 20.3 0 01-10.758-3.469c-4.629-2.778-8.995-5.178-13.1-7.2a80.468 80.468 0 00-12.582-4.947 83.045 83.045 0 00-13.536-2.776c-5.3-.61-10.632-.9-15.967-.868a72.801 72.801 0 00-29.674 5.815 63.596 63.596 0 00-22.473 16.4 74.185 74.185 0 00-14.32 25.419 102.396 102.396 0 00-5.033 33.059c0 13.423 1.851 25.34 5.554 35.749a76.75 76.75 0 0015.358 26.379 65.135 65.135 0 0023.254 16.4 75.28 75.28 0 0029.418 5.638zM816.83 1.615c1.617.199 3.196.637 4.685 1.3a15.67 15.67 0 013.991 2.692 45.809 45.809 0 014.338 4.683l120.089 153.751-1.388-162.773h51.715v257.525h-30.544a28.151 28.151 0 01-11.453-2.084 24.45 24.45 0 01-9.024-7.635L830.018 95.668l1.215 163.125h-51.715V1.268h30.891c2.146-.023 4.29.093 6.421.347z" fill="#F15A29"/>
</svg>
