<svg id="Layer_1" xmlns="http://www.w3.org/2000/svg" viewBox="0 0 360 360">
  <style>
    .st0{fill-rule:evenodd;clip-rule:evenodd;fill:#f68a53}.st1{fill:#00b7aa}
  </style>
  <ellipse class="st0" cx="262.5" cy="169.6" rx="15.7" ry="11.2"/>
  <ellipse class="st0" cx="296.9" cy="154.8" rx="15.7" ry="11.2"/>
  <path class="st1" d="M298.1 198.7c-2 0-4 .4-5.8 1.3l-89.2 41.4c-7.4 3.4-15.2 5.1-23.3 5.1-1.6 0-3.2-.1-4.8-.2-5.1-.4-14.5-3.1-20.2-5.7l-87.2-40.5c-1.8-.9-3.8-1.3-5.8-1.3-3.6 0-7 1.4-9.6 3.9-2.7 2.6-4.2 6.1-4.2 9.9V223c0 11.3 5.6 21.7 15.1 28l59 38.8c17.2 11.3 37.2 17.3 57.8 17.3s40.6-6 57.8-17.3l59-38.8c9.4-6.2 15.1-16.7 15.1-28v-10.5c.1-7.6-6.1-13.8-13.7-13.8zm4.6 24.3c0 8.2-4.1 15.8-10.9 20.3l-59 38.8c-16 10.5-34.4 15.8-52.8 15.8s-36.8-5.3-52.8-15.8l-59-38.8c-6.8-4.5-10.9-12.1-10.9-20.3v-10.4c0-2.7 2.2-4.6 4.6-4.6.6 0 1.3.1 1.9.4l87.2 40.5c6.1 2.8 16.6 6 23.3 6.5 1.8.2 3.7.2 5.5.2 9.5 0 18.6-2 27.2-6l89.2-41.4c.6-.3 1.3-.4 1.9-.4 2.4 0 4.6 1.9 4.6 4.6V223zM229.9 79.1c.6.5 1.3.7 2 .7.9 0 1.8-.4 2.5-1.2 3.9-4.9 10.7-6.3 16.2-3.4 1.5.8 3.4.2 4.3-1.3.8-1.5.2-3.4-1.3-4.3-8.2-4.3-18.3-2.2-24.1 5.1-1.2 1.3-.9 3.3.4 4.4z"/>
  <path class="st1" d="M338.2 134.5l-66.9-29c5.3-7.3 7.6-16.8 5.6-26.3-3.2-15.3-16.9-26.4-32.5-26.4-2.3 0-4.6.2-6.8.7-13.5 2.8-23.3 13.5-25.8 26.2l-7.5-3.2c-7.8-3.4-16-5.1-24.5-5.1s-16.7 1.7-24.5 5.1L22 134.3c-7.4 3.2-12 10.2-12.1 18.2-.1 8 4.4 15.1 11.7 18.5L154 232.4c8.2 3.8 16.9 5.7 25.9 5.7s17.7-1.9 25.9-5.7l132.9-61.7c7.2-3.3 11.6-10.3 11.5-18.3-.1-7.8-4.7-14.7-12-17.9zm-98.7-71.9c1.7-.3 3.3-.5 5-.5 11.2 0 21.2 7.8 23.5 19.2 2.3 11-3.3 21.8-12.9 26.5-.3.1-.6.3-.9.4-1.5.7-3.1 1.2-4.8 1.6-1.7.3-3.3.5-5 .5-11.2 0-21.2-7.8-23.5-19.2-2.8-13.1 5.6-25.8 18.6-28.5zm-10.2 53.1L186.9 160c-2.2 2.3-5.2 3.4-8.1 3.4-2.5 0-5-.8-7-2.5-4.3-3.7-4.6-10-.6-14.2l43.6-45.5c3.2 6.3 8.4 11.4 14.5 14.5zm105.5 46.7l-132.9 61.7c-7 3.2-14.5 4.9-22.1 4.9-7.5 0-15.1-1.6-22.1-4.9L25.3 162.7c-8.6-4-8.4-16.2.3-20L159 85c6.6-2.9 13.7-4.3 20.8-4.3s14.2 1.4 20.8 4.3l10.7 4.6c.1 1.1.3 2.2.5 3.3l.3 1.2-40 41.8c-17.1 1.9-29.9 9.6-29.9 18.9 0 10.7 16.9 19.4 37.7 19.4s37.7-8.7 37.7-19.4c0-3.9-2.3-7.5-6.1-10.6l24.8-25.9c2.6.6 5.3 1 8 1 2.3 0 4.6-.2 6.8-.7 5-1 9.5-3.2 13.3-6.1l70.1 30.3c8.5 3.8 8.7 15.8.3 19.6z"/>
</svg>